<mxfile host="app.diagrams.net" modified="2024-02-26T18:19:09.357Z" agent="Mozilla/5.0 (Windows NT 10.0; Win64; x64) AppleWebKit/537.36 (KHTML, like Gecko) Chrome/122.0.0.0 Safari/537.36" etag="F_DXNSrTPe0qhPiEgiTs" version="23.1.7" type="google">
  <diagram name="Pagina-1" id="-ERhRb8o4DBU5_3iCKPE">
    <mxGraphModel grid="1" page="1" gridSize="10" guides="1" tooltips="1" connect="1" arrows="1" fold="1" pageScale="1" pageWidth="827" pageHeight="1169" math="0" shadow="0">
      <root>
        <mxCell id="0" />
        <mxCell id="1" parent="0" />
        <mxCell id="vEjCoTIgJUpQcKAmu4vh-1" style="edgeStyle=orthogonalEdgeStyle;rounded=0;orthogonalLoop=1;jettySize=auto;html=1;exitX=0.75;exitY=0;exitDx=0;exitDy=0;entryX=0;entryY=0.5;entryDx=0;entryDy=0;endArrow=none;endFill=0;" edge="1" parent="1" source="vEjCoTIgJUpQcKAmu4vh-11" target="vEjCoTIgJUpQcKAmu4vh-18">
          <mxGeometry relative="1" as="geometry">
            <Array as="points">
              <mxPoint x="251" y="296" />
            </Array>
          </mxGeometry>
        </mxCell>
        <mxCell id="vEjCoTIgJUpQcKAmu4vh-2" style="edgeStyle=orthogonalEdgeStyle;rounded=0;orthogonalLoop=1;jettySize=auto;html=1;exitX=0.25;exitY=0;exitDx=0;exitDy=0;entryX=0.5;entryY=1;entryDx=0;entryDy=0;endArrow=none;endFill=0;" edge="1" parent="1" target="vEjCoTIgJUpQcKAmu4vh-49">
          <mxGeometry relative="1" as="geometry">
            <mxPoint x="178" y="160" as="targetPoint" />
            <Array as="points">
              <mxPoint x="298" y="225" />
              <mxPoint x="344" y="225" />
            </Array>
            <mxPoint x="298" y="280" as="sourcePoint" />
          </mxGeometry>
        </mxCell>
        <mxCell id="vEjCoTIgJUpQcKAmu4vh-3" style="edgeStyle=orthogonalEdgeStyle;rounded=0;orthogonalLoop=1;jettySize=auto;html=1;exitX=1;exitY=0.75;exitDx=0;exitDy=0;entryX=0.5;entryY=0;entryDx=0;entryDy=0;endArrow=none;endFill=0;" edge="1" parent="1" source="vEjCoTIgJUpQcKAmu4vh-11" target="vEjCoTIgJUpQcKAmu4vh-50">
          <mxGeometry relative="1" as="geometry">
            <Array as="points">
              <mxPoint x="271" y="310" />
              <mxPoint x="271" y="280" />
              <mxPoint x="400" y="280" />
              <mxPoint x="400" y="100" />
              <mxPoint x="936" y="100" />
            </Array>
          </mxGeometry>
        </mxCell>
        <mxCell id="vEjCoTIgJUpQcKAmu4vh-4" style="edgeStyle=orthogonalEdgeStyle;rounded=0;orthogonalLoop=1;jettySize=auto;html=1;exitX=0;exitY=0;exitDx=0;exitDy=0;endArrow=oval;endFill=0;entryX=1;entryY=0.5;entryDx=0;entryDy=0;" edge="1" parent="1" source="vEjCoTIgJUpQcKAmu4vh-11" target="vEjCoTIgJUpQcKAmu4vh-97">
          <mxGeometry relative="1" as="geometry">
            <mxPoint x="197" y="280" as="targetPoint" />
            <mxPoint x="237" y="280" as="sourcePoint" />
            <Array as="points">
              <mxPoint x="194" y="280" />
              <mxPoint x="194" y="273" />
              <mxPoint x="170" y="273" />
            </Array>
          </mxGeometry>
        </mxCell>
        <mxCell id="vEjCoTIgJUpQcKAmu4vh-9" style="edgeStyle=orthogonalEdgeStyle;rounded=0;orthogonalLoop=1;jettySize=auto;html=1;exitX=0;exitY=1;exitDx=0;exitDy=0;endArrow=oval;endFill=0;entryX=1;entryY=0.5;entryDx=0;entryDy=0;" edge="1" parent="1" source="vEjCoTIgJUpQcKAmu4vh-11" target="vEjCoTIgJUpQcKAmu4vh-95">
          <mxGeometry relative="1" as="geometry">
            <mxPoint x="91.21739130434798" y="337" as="targetPoint" />
            <Array as="points">
              <mxPoint x="170" y="320" />
              <mxPoint x="170" y="330" />
            </Array>
            <mxPoint x="91" y="287" as="sourcePoint" />
          </mxGeometry>
        </mxCell>
        <mxCell id="tyPzEqqiCEX_8LXAU5II-3" style="edgeStyle=orthogonalEdgeStyle;rounded=0;orthogonalLoop=1;jettySize=auto;html=1;exitX=0;exitY=0.5;exitDx=0;exitDy=0;endArrow=oval;endFill=0;" edge="1" parent="1" source="vEjCoTIgJUpQcKAmu4vh-11" target="vEjCoTIgJUpQcKAmu4vh-93">
          <mxGeometry relative="1" as="geometry" />
        </mxCell>
        <mxCell id="tyPzEqqiCEX_8LXAU5II-4" style="edgeStyle=orthogonalEdgeStyle;rounded=0;orthogonalLoop=1;jettySize=auto;html=1;exitX=-0.013;exitY=0.85;exitDx=0;exitDy=0;endArrow=oval;endFill=0;entryX=1;entryY=0.5;entryDx=0;entryDy=0;exitPerimeter=0;" edge="1" parent="1" source="vEjCoTIgJUpQcKAmu4vh-11" target="vEjCoTIgJUpQcKAmu4vh-96">
          <mxGeometry relative="1" as="geometry">
            <mxPoint x="150" y="310" as="targetPoint" />
            <Array as="points">
              <mxPoint x="146" y="314" />
            </Array>
          </mxGeometry>
        </mxCell>
        <mxCell id="tyPzEqqiCEX_8LXAU5II-9" style="edgeStyle=orthogonalEdgeStyle;rounded=0;orthogonalLoop=1;jettySize=auto;html=1;exitX=0;exitY=0.25;exitDx=0;exitDy=0;entryX=1;entryY=0.5;entryDx=0;entryDy=0;endArrow=oval;endFill=0;" edge="1" parent="1" source="vEjCoTIgJUpQcKAmu4vh-11" target="vEjCoTIgJUpQcKAmu4vh-94">
          <mxGeometry relative="1" as="geometry" />
        </mxCell>
        <mxCell id="tyPzEqqiCEX_8LXAU5II-33" style="edgeStyle=orthogonalEdgeStyle;rounded=0;orthogonalLoop=1;jettySize=auto;html=1;exitX=0.75;exitY=0;exitDx=0;exitDy=0;endArrow=none;endFill=0;entryX=0.5;entryY=1;entryDx=0;entryDy=0;" edge="1" parent="1" source="vEjCoTIgJUpQcKAmu4vh-11" target="v9OHgqMt4ilXEsjnLe-m-3">
          <mxGeometry relative="1" as="geometry">
            <Array as="points">
              <mxPoint x="230" y="280" />
              <mxPoint x="230" y="230" />
              <mxPoint x="184" y="230" />
            </Array>
            <mxPoint x="230" y="150" as="targetPoint" />
          </mxGeometry>
        </mxCell>
        <mxCell id="jZhTIUbwoDD73gPxls-7-2" style="edgeStyle=orthogonalEdgeStyle;rounded=0;orthogonalLoop=1;jettySize=auto;html=1;exitX=0.25;exitY=1;exitDx=0;exitDy=0;entryX=0;entryY=0.5;entryDx=0;entryDy=0;endArrow=none;endFill=0;" edge="1" parent="1" source="vEjCoTIgJUpQcKAmu4vh-11" target="jZhTIUbwoDD73gPxls-7-3">
          <mxGeometry relative="1" as="geometry">
            <mxPoint x="200" y="843.150050951087" as="targetPoint" />
            <Array as="points">
              <mxPoint x="230" y="320" />
              <mxPoint x="230" y="400" />
              <mxPoint x="140" y="400" />
              <mxPoint x="140" y="843" />
              <mxPoint x="210" y="843" />
            </Array>
          </mxGeometry>
        </mxCell>
        <mxCell id="aqizpYm2CFcPnqaB_0yM-33" style="edgeStyle=orthogonalEdgeStyle;rounded=0;orthogonalLoop=1;jettySize=auto;html=1;exitX=0.5;exitY=1;exitDx=0;exitDy=0;entryX=0.5;entryY=0;entryDx=0;entryDy=0;endArrow=none;endFill=0;" edge="1" parent="1" source="vEjCoTIgJUpQcKAmu4vh-11" target="aqizpYm2CFcPnqaB_0yM-32">
          <mxGeometry relative="1" as="geometry" />
        </mxCell>
        <mxCell id="KJJLjmd7ufImtbG5PTc1-1" style="edgeStyle=orthogonalEdgeStyle;rounded=0;orthogonalLoop=1;jettySize=auto;html=1;exitX=0;exitY=1;exitDx=0;exitDy=0;entryX=1;entryY=0.5;entryDx=0;entryDy=0;endArrow=oval;endFill=0;" edge="1" parent="1" target="KJJLjmd7ufImtbG5PTc1-2">
          <mxGeometry relative="1" as="geometry">
            <mxPoint x="130" y="349" as="targetPoint" />
            <mxPoint x="223" y="317" as="sourcePoint" />
            <Array as="points">
              <mxPoint x="223" y="342" />
              <mxPoint x="170" y="342" />
              <mxPoint x="170" y="350" />
              <mxPoint x="122" y="350" />
            </Array>
          </mxGeometry>
        </mxCell>
        <mxCell id="vEjCoTIgJUpQcKAmu4vh-11" value="UTENTE" style="rounded=0;whiteSpace=wrap;html=1;fontSize=8;" vertex="1" parent="1">
          <mxGeometry x="219" y="280" width="80" height="40" as="geometry" />
        </mxCell>
        <mxCell id="vEjCoTIgJUpQcKAmu4vh-135" style="edgeStyle=orthogonalEdgeStyle;rounded=0;orthogonalLoop=1;jettySize=auto;html=1;exitX=0.5;exitY=0;exitDx=0;exitDy=0;endArrow=none;endFill=0;" edge="1" parent="1" source="vEjCoTIgJUpQcKAmu4vh-16">
          <mxGeometry relative="1" as="geometry">
            <Array as="points">
              <mxPoint x="397" y="320" />
            </Array>
            <mxPoint x="300" y="320" as="targetPoint" />
          </mxGeometry>
        </mxCell>
        <mxCell id="EwUT0WBinwEKpefRujVR-20" style="edgeStyle=orthogonalEdgeStyle;rounded=0;orthogonalLoop=1;jettySize=auto;html=1;exitX=0.5;exitY=1;exitDx=0;exitDy=0;entryX=0.5;entryY=0;entryDx=0;entryDy=0;endArrow=none;endFill=0;" edge="1" parent="1" source="vEjCoTIgJUpQcKAmu4vh-16" target="EwUT0WBinwEKpefRujVR-15">
          <mxGeometry relative="1" as="geometry" />
        </mxCell>
        <mxCell id="vEjCoTIgJUpQcKAmu4vh-16" value="DONA" style="rhombus;whiteSpace=wrap;html=1;fontSize=8;" vertex="1" parent="1">
          <mxGeometry x="372" y="325.5" width="50" height="40" as="geometry" />
        </mxCell>
        <mxCell id="vEjCoTIgJUpQcKAmu4vh-18" value="SEGUE" style="rhombus;whiteSpace=wrap;html=1;fontSize=8;" vertex="1" parent="1">
          <mxGeometry x="475" y="279" width="70" height="50" as="geometry" />
        </mxCell>
        <mxCell id="EwUT0WBinwEKpefRujVR-16" style="edgeStyle=orthogonalEdgeStyle;rounded=0;orthogonalLoop=1;jettySize=auto;html=1;exitX=1;exitY=0.5;exitDx=0;exitDy=0;endArrow=none;endFill=0;" edge="1" parent="1" source="vEjCoTIgJUpQcKAmu4vh-24" target="vEjCoTIgJUpQcKAmu4vh-136">
          <mxGeometry relative="1" as="geometry" />
        </mxCell>
        <mxCell id="EwUT0WBinwEKpefRujVR-17" style="edgeStyle=orthogonalEdgeStyle;rounded=0;orthogonalLoop=1;jettySize=auto;html=1;exitX=1;exitY=0.25;exitDx=0;exitDy=0;entryX=0.5;entryY=1;entryDx=0;entryDy=0;endArrow=none;endFill=0;" edge="1" parent="1" source="vEjCoTIgJUpQcKAmu4vh-24" target="EwUT0WBinwEKpefRujVR-18">
          <mxGeometry relative="1" as="geometry">
            <mxPoint x="400" y="460" as="targetPoint" />
            <Array as="points">
              <mxPoint x="397" y="503" />
            </Array>
          </mxGeometry>
        </mxCell>
        <mxCell id="vEjCoTIgJUpQcKAmu4vh-24" value="STREAMER" style="rounded=0;whiteSpace=wrap;html=1;fontSize=8;" vertex="1" parent="1">
          <mxGeometry x="270" y="493" width="80" height="40" as="geometry" />
        </mxCell>
        <mxCell id="vEjCoTIgJUpQcKAmu4vh-26" value="GENERA" style="rhombus;whiteSpace=wrap;html=1;fontSize=8;" vertex="1" parent="1">
          <mxGeometry x="685" y="430" width="70" height="50" as="geometry" />
        </mxCell>
        <mxCell id="vEjCoTIgJUpQcKAmu4vh-27" style="edgeStyle=orthogonalEdgeStyle;rounded=0;orthogonalLoop=1;jettySize=auto;html=1;exitX=0.5;exitY=0;exitDx=0;exitDy=0;entryX=0.5;entryY=1;entryDx=0;entryDy=0;endArrow=none;endFill=0;" edge="1" parent="1" source="aqizpYm2CFcPnqaB_0yM-5" target="vEjCoTIgJUpQcKAmu4vh-26">
          <mxGeometry relative="1" as="geometry">
            <Array as="points">
              <mxPoint x="849" y="540" />
              <mxPoint x="760" y="540" />
              <mxPoint x="760" y="500" />
              <mxPoint x="720" y="500" />
            </Array>
            <mxPoint x="800" y="540" as="sourcePoint" />
          </mxGeometry>
        </mxCell>
        <mxCell id="vEjCoTIgJUpQcKAmu4vh-142" style="edgeStyle=orthogonalEdgeStyle;rounded=0;orthogonalLoop=1;jettySize=auto;html=1;exitX=0.838;exitY=-0.033;exitDx=0;exitDy=0;endArrow=none;endFill=0;entryX=0.5;entryY=1;entryDx=0;entryDy=0;exitPerimeter=0;" edge="1" parent="1" source="aqizpYm2CFcPnqaB_0yM-5" target="vEjCoTIgJUpQcKAmu4vh-50">
          <mxGeometry relative="1" as="geometry">
            <mxPoint x="840" y="350" as="targetPoint" />
            <Array as="points">
              <mxPoint x="876" y="470" />
              <mxPoint x="936" y="470" />
            </Array>
            <mxPoint x="840" y="540" as="sourcePoint" />
          </mxGeometry>
        </mxCell>
        <mxCell id="vEjCoTIgJUpQcKAmu4vh-39" style="edgeStyle=orthogonalEdgeStyle;rounded=0;orthogonalLoop=1;jettySize=auto;html=1;exitX=1;exitY=0.5;exitDx=0;exitDy=0;entryX=0.159;entryY=0.012;entryDx=0;entryDy=0;endArrow=none;endFill=0;entryPerimeter=0;" edge="1" parent="1" source="vEjCoTIgJUpQcKAmu4vh-40" target="aqizpYm2CFcPnqaB_0yM-5">
          <mxGeometry relative="1" as="geometry">
            <mxPoint x="760" y="580" as="targetPoint" />
            <Array as="points">
              <mxPoint x="822" y="580" />
            </Array>
          </mxGeometry>
        </mxCell>
        <mxCell id="vEjCoTIgJUpQcKAmu4vh-40" value="&lt;font style=&quot;font-size: 7px;&quot;&gt;VISUALIZZA IN ANONIMO&lt;/font&gt;" style="rhombus;whiteSpace=wrap;html=1;fontSize=8;" vertex="1" parent="1">
          <mxGeometry x="649" y="555" width="70" height="50" as="geometry" />
        </mxCell>
        <mxCell id="vEjCoTIgJUpQcKAmu4vh-45" style="edgeStyle=orthogonalEdgeStyle;rounded=0;orthogonalLoop=1;jettySize=auto;html=1;exitX=1;exitY=0.5;exitDx=0;exitDy=0;entryX=0;entryY=0.5;entryDx=0;entryDy=0;endArrow=none;endFill=0;" edge="1" parent="1" source="vEjCoTIgJUpQcKAmu4vh-47" target="vEjCoTIgJUpQcKAmu4vh-40">
          <mxGeometry relative="1" as="geometry" />
        </mxCell>
        <mxCell id="vEjCoTIgJUpQcKAmu4vh-46" style="edgeStyle=orthogonalEdgeStyle;rounded=0;orthogonalLoop=1;jettySize=auto;html=1;exitX=0;exitY=0.5;exitDx=0;exitDy=0;endArrow=oval;endFill=1;" edge="1" parent="1">
          <mxGeometry relative="1" as="geometry">
            <mxPoint x="501" y="579" as="targetPoint" />
            <mxPoint x="541" y="579.9999999999999" as="sourcePoint" />
            <Array as="points">
              <mxPoint x="501" y="580" />
            </Array>
          </mxGeometry>
        </mxCell>
        <mxCell id="vEjCoTIgJUpQcKAmu4vh-47" value="VISITATORE" style="rounded=0;whiteSpace=wrap;html=1;fontSize=8;" vertex="1" parent="1">
          <mxGeometry x="529" y="560" width="80" height="40" as="geometry" />
        </mxCell>
        <mxCell id="v9OHgqMt4ilXEsjnLe-m-2" style="edgeStyle=orthogonalEdgeStyle;rounded=0;orthogonalLoop=1;jettySize=auto;html=1;exitX=0.5;exitY=0;exitDx=0;exitDy=0;entryX=1;entryY=0.5;entryDx=0;entryDy=0;endArrow=none;endFill=0;" edge="1" parent="1" source="vEjCoTIgJUpQcKAmu4vh-49" target="v9OHgqMt4ilXEsjnLe-m-1">
          <mxGeometry relative="1" as="geometry" />
        </mxCell>
        <mxCell id="vEjCoTIgJUpQcKAmu4vh-49" value="INVIA" style="rhombus;whiteSpace=wrap;html=1;fontSize=8;" vertex="1" parent="1">
          <mxGeometry x="309" y="121" width="70" height="50" as="geometry" />
        </mxCell>
        <mxCell id="vEjCoTIgJUpQcKAmu4vh-50" value="VISUALIZZA" style="rhombus;whiteSpace=wrap;html=1;fontSize=8;" vertex="1" parent="1">
          <mxGeometry x="901" y="299" width="70" height="50" as="geometry" />
        </mxCell>
        <mxCell id="vEjCoTIgJUpQcKAmu4vh-129" style="edgeStyle=orthogonalEdgeStyle;rounded=0;orthogonalLoop=1;jettySize=auto;html=1;exitX=0.5;exitY=0;exitDx=0;exitDy=0;endArrow=none;endFill=0;entryX=0.5;entryY=1;entryDx=0;entryDy=0;" edge="1" parent="1" source="vEjCoTIgJUpQcKAmu4vh-52" target="vEjCoTIgJUpQcKAmu4vh-24">
          <mxGeometry relative="1" as="geometry">
            <mxPoint x="302" y="479" as="targetPoint" />
          </mxGeometry>
        </mxCell>
        <mxCell id="vEjCoTIgJUpQcKAmu4vh-52" value="POSSIEDE" style="rhombus;whiteSpace=wrap;html=1;fontSize=8;" vertex="1" parent="1">
          <mxGeometry x="275" y="565" width="70" height="50" as="geometry" />
        </mxCell>
        <mxCell id="vEjCoTIgJUpQcKAmu4vh-54" style="edgeStyle=orthogonalEdgeStyle;rounded=0;orthogonalLoop=1;jettySize=auto;html=1;exitX=0;exitY=0;exitDx=0;exitDy=0;endArrow=oval;endFill=0;" edge="1" parent="1" source="vEjCoTIgJUpQcKAmu4vh-56">
          <mxGeometry relative="1" as="geometry">
            <mxPoint x="252.25" y="646" as="targetPoint" />
          </mxGeometry>
        </mxCell>
        <mxCell id="vEjCoTIgJUpQcKAmu4vh-55" style="edgeStyle=orthogonalEdgeStyle;rounded=0;orthogonalLoop=1;jettySize=auto;html=1;exitX=0.25;exitY=1;exitDx=0;exitDy=0;endArrow=oval;endFill=0;" edge="1" parent="1" source="vEjCoTIgJUpQcKAmu4vh-56">
          <mxGeometry relative="1" as="geometry">
            <mxPoint x="272.25" y="746" as="targetPoint" />
          </mxGeometry>
        </mxCell>
        <mxCell id="vEjCoTIgJUpQcKAmu4vh-143" style="edgeStyle=orthogonalEdgeStyle;rounded=0;orthogonalLoop=1;jettySize=auto;html=1;exitX=0.75;exitY=0;exitDx=0;exitDy=0;endArrow=none;endFill=0;entryX=0.5;entryY=1;entryDx=0;entryDy=0;" edge="1" parent="1" target="vEjCoTIgJUpQcKAmu4vh-52">
          <mxGeometry relative="1" as="geometry">
            <Array as="points">
              <mxPoint x="310" y="671" />
            </Array>
            <mxPoint x="314" y="671" as="sourcePoint" />
            <mxPoint x="310" y="620" as="targetPoint" />
          </mxGeometry>
        </mxCell>
        <mxCell id="jZhTIUbwoDD73gPxls-7-4" style="edgeStyle=orthogonalEdgeStyle;rounded=0;orthogonalLoop=1;jettySize=auto;html=1;exitX=0;exitY=0.5;exitDx=0;exitDy=0;entryX=1;entryY=0.5;entryDx=0;entryDy=0;endArrow=oval;endFill=0;" edge="1" parent="1" source="vEjCoTIgJUpQcKAmu4vh-56" target="vEjCoTIgJUpQcKAmu4vh-62">
          <mxGeometry relative="1" as="geometry" />
        </mxCell>
        <mxCell id="vEjCoTIgJUpQcKAmu4vh-56" value="CALENDARIO" style="rounded=0;whiteSpace=wrap;html=1;fontSize=8;" vertex="1" parent="1">
          <mxGeometry x="253" y="671" width="80" height="40" as="geometry" />
        </mxCell>
        <mxCell id="vEjCoTIgJUpQcKAmu4vh-57" value="&lt;font style=&quot;font-size: 8px;&quot;&gt;INDIRIZZO IP&lt;/font&gt;" style="text;html=1;strokeColor=none;fillColor=none;align=center;verticalAlign=middle;whiteSpace=wrap;rounded=0;" vertex="1" parent="1">
          <mxGeometry x="436" y="563" width="60" height="30" as="geometry" />
        </mxCell>
        <mxCell id="vEjCoTIgJUpQcKAmu4vh-62" value="&lt;font style=&quot;font-size: 8px;&quot;&gt;DATA E ORA&lt;/font&gt;" style="text;html=1;strokeColor=none;fillColor=none;align=center;verticalAlign=middle;whiteSpace=wrap;rounded=0;" vertex="1" parent="1">
          <mxGeometry x="151" y="676" width="60" height="30" as="geometry" />
        </mxCell>
        <mxCell id="vEjCoTIgJUpQcKAmu4vh-63" value="&lt;font style=&quot;font-size: 9px;&quot;&gt;(0, N)&lt;/font&gt;" style="text;html=1;strokeColor=none;fillColor=none;align=center;verticalAlign=middle;whiteSpace=wrap;rounded=0;" vertex="1" parent="1">
          <mxGeometry x="599" y="574" width="60" height="30" as="geometry" />
        </mxCell>
        <mxCell id="vEjCoTIgJUpQcKAmu4vh-64" value="&lt;font style=&quot;font-size: 9px;&quot;&gt;(0, N)&lt;/font&gt;" style="text;html=1;strokeColor=none;fillColor=none;align=center;verticalAlign=middle;whiteSpace=wrap;rounded=0;" vertex="1" parent="1">
          <mxGeometry x="706" y="575" width="60" height="30" as="geometry" />
        </mxCell>
        <mxCell id="vEjCoTIgJUpQcKAmu4vh-65" value="&lt;font style=&quot;font-size: 9px;&quot;&gt;(0, 1)&lt;/font&gt;" style="text;html=1;strokeColor=none;fillColor=none;align=center;verticalAlign=middle;whiteSpace=wrap;rounded=0;" vertex="1" parent="1">
          <mxGeometry x="745" y="510" width="60" height="30" as="geometry" />
        </mxCell>
        <mxCell id="vEjCoTIgJUpQcKAmu4vh-66" value="&lt;font style=&quot;font-size: 8px;&quot;&gt;(0, N)&lt;/font&gt;" style="text;html=1;strokeColor=none;fillColor=none;align=center;verticalAlign=middle;whiteSpace=wrap;rounded=0;" vertex="1" parent="1">
          <mxGeometry x="291" y="310" width="60" height="30" as="geometry" />
        </mxCell>
        <mxCell id="vEjCoTIgJUpQcKAmu4vh-73" value="&lt;font style=&quot;font-size: 9px;&quot;&gt;(0, N)&lt;/font&gt;" style="text;html=1;strokeColor=none;fillColor=none;align=center;verticalAlign=middle;whiteSpace=wrap;rounded=0;" vertex="1" parent="1">
          <mxGeometry x="525" y="295" width="60" height="30" as="geometry" />
        </mxCell>
        <mxCell id="vEjCoTIgJUpQcKAmu4vh-75" value="&lt;font style=&quot;font-size: 9px;&quot;&gt;(1, 1)&lt;/font&gt;" style="text;html=1;strokeColor=none;fillColor=none;align=center;verticalAlign=middle;whiteSpace=wrap;rounded=0;" vertex="1" parent="1">
          <mxGeometry x="291" y="67" width="60" height="30" as="geometry" />
        </mxCell>
        <mxCell id="vEjCoTIgJUpQcKAmu4vh-76" value="&lt;font style=&quot;font-size: 9px;&quot;&gt;(0, N)&lt;/font&gt;" style="text;html=1;strokeColor=none;fillColor=none;align=center;verticalAlign=middle;whiteSpace=wrap;rounded=0;" vertex="1" parent="1">
          <mxGeometry x="174.5" y="201" width="60" height="30" as="geometry" />
        </mxCell>
        <mxCell id="vEjCoTIgJUpQcKAmu4vh-77" value="&lt;font style=&quot;font-size: 9px;&quot;&gt;(1, 1)&lt;/font&gt;" style="text;html=1;strokeColor=none;fillColor=none;align=center;verticalAlign=middle;whiteSpace=wrap;rounded=0;" vertex="1" parent="1">
          <mxGeometry x="300" y="622" width="60" height="30" as="geometry" />
        </mxCell>
        <mxCell id="vEjCoTIgJUpQcKAmu4vh-78" value="&lt;font style=&quot;font-size: 9px;&quot;&gt;(0, N)&lt;/font&gt;" style="text;html=1;strokeColor=none;fillColor=none;align=center;verticalAlign=middle;whiteSpace=wrap;rounded=0;" vertex="1" parent="1">
          <mxGeometry x="299" y="528" width="60" height="30" as="geometry" />
        </mxCell>
        <mxCell id="vEjCoTIgJUpQcKAmu4vh-81" value="&lt;font style=&quot;font-size: 9px;&quot;&gt;(0, N)&lt;/font&gt;" style="text;html=1;strokeColor=none;fillColor=none;align=center;verticalAlign=middle;whiteSpace=wrap;rounded=0;" vertex="1" parent="1">
          <mxGeometry x="432" y="296" width="60" height="30" as="geometry" />
        </mxCell>
        <mxCell id="vEjCoTIgJUpQcKAmu4vh-82" value="&lt;font style=&quot;font-size: 7px;&quot;&gt;(0, 1)&lt;/font&gt;" style="text;html=1;strokeColor=none;fillColor=none;align=center;verticalAlign=middle;whiteSpace=wrap;rounded=0;" vertex="1" parent="1">
          <mxGeometry x="638" y="309" width="57" height="25" as="geometry" />
        </mxCell>
        <mxCell id="vEjCoTIgJUpQcKAmu4vh-84" value="" style="endArrow=oval;html=1;rounded=0;exitX=0;exitY=0;exitDx=0;exitDy=0;endFill=0;" edge="1" parent="1">
          <mxGeometry width="50" height="50" relative="1" as="geometry">
            <mxPoint x="219" y="62.5" as="sourcePoint" />
            <mxPoint x="131.5" y="53" as="targetPoint" />
          </mxGeometry>
        </mxCell>
        <mxCell id="vEjCoTIgJUpQcKAmu4vh-85" value="&lt;span style=&quot;font-size: 8px;&quot;&gt;DATA E ORA&lt;/span&gt;" style="text;html=1;strokeColor=none;fillColor=none;align=center;verticalAlign=middle;whiteSpace=wrap;rounded=0;" vertex="1" parent="1">
          <mxGeometry x="96.5" y="20" width="60" height="30" as="geometry" />
        </mxCell>
        <mxCell id="vEjCoTIgJUpQcKAmu4vh-86" value="" style="endArrow=oval;html=1;rounded=0;exitX=0.5;exitY=0;exitDx=0;exitDy=0;endFill=0;" edge="1" parent="1">
          <mxGeometry width="50" height="50" relative="1" as="geometry">
            <mxPoint x="236.5" y="50" as="sourcePoint" />
            <mxPoint x="151.5" y="43" as="targetPoint" />
          </mxGeometry>
        </mxCell>
        <mxCell id="vEjCoTIgJUpQcKAmu4vh-90" value="&lt;font style=&quot;font-size: 8px;&quot;&gt;TITOLO&lt;/font&gt;" style="text;html=1;strokeColor=none;fillColor=none;align=center;verticalAlign=middle;whiteSpace=wrap;rounded=0;" vertex="1" parent="1">
          <mxGeometry x="218" y="622" width="60" height="30" as="geometry" />
        </mxCell>
        <mxCell id="vEjCoTIgJUpQcKAmu4vh-91" value="&lt;span style=&quot;font-size: 8px;&quot;&gt;VISIBILITÀ&lt;/span&gt;" style="text;html=1;strokeColor=none;fillColor=none;align=center;verticalAlign=middle;whiteSpace=wrap;rounded=0;" vertex="1" parent="1">
          <mxGeometry x="242" y="738" width="60" height="30" as="geometry" />
        </mxCell>
        <mxCell id="vEjCoTIgJUpQcKAmu4vh-93" value="&lt;font style=&quot;font-size: 7px;&quot;&gt;TELEFONO&lt;/font&gt;" style="text;html=1;strokeColor=none;fillColor=none;align=center;verticalAlign=middle;whiteSpace=wrap;rounded=0;" vertex="1" parent="1">
          <mxGeometry x="140" y="285" width="50" height="30" as="geometry" />
        </mxCell>
        <mxCell id="vEjCoTIgJUpQcKAmu4vh-94" value="&lt;font style=&quot;font-size: 7px;&quot;&gt;BIT&lt;/font&gt;" style="text;html=1;strokeColor=none;fillColor=none;align=center;verticalAlign=middle;whiteSpace=wrap;rounded=0;fontSize=7;" vertex="1" parent="1">
          <mxGeometry x="130" y="275" width="26" height="30" as="geometry" />
        </mxCell>
        <mxCell id="vEjCoTIgJUpQcKAmu4vh-95" value="&lt;p style=&quot;line-height: 100%; font-size: 7px;&quot;&gt;&lt;font style=&quot;font-size: 7px;&quot;&gt;DATA DI NASCITA&lt;/font&gt;&lt;/p&gt;" style="text;html=1;strokeColor=none;fillColor=none;align=center;verticalAlign=middle;whiteSpace=wrap;rounded=0;fontSize=7;spacing=0;" vertex="1" parent="1">
          <mxGeometry x="88" y="315" width="50" height="30" as="geometry" />
        </mxCell>
        <mxCell id="vEjCoTIgJUpQcKAmu4vh-96" value="PASSWORD" style="text;html=1;strokeColor=none;fillColor=none;align=center;verticalAlign=middle;whiteSpace=wrap;rounded=0;fontSize=7;" vertex="1" parent="1">
          <mxGeometry x="93" y="302" width="50" height="24" as="geometry" />
        </mxCell>
        <mxCell id="vEjCoTIgJUpQcKAmu4vh-97" value="&lt;font style=&quot;font-size: 7px;&quot;&gt;EMAIL&lt;/font&gt;" style="text;html=1;strokeColor=none;fillColor=none;align=center;verticalAlign=middle;whiteSpace=wrap;rounded=0;fontSize=7;" vertex="1" parent="1">
          <mxGeometry x="129" y="263" width="41" height="21" as="geometry" />
        </mxCell>
        <mxCell id="vEjCoTIgJUpQcKAmu4vh-98" value="&lt;font style=&quot;font-size: 7px;&quot;&gt;USERNAME&lt;/font&gt;" style="text;html=1;strokeColor=none;fillColor=none;align=center;verticalAlign=middle;whiteSpace=wrap;rounded=0;fontSize=7;" vertex="1" parent="1">
          <mxGeometry x="149" y="240" width="46" height="29" as="geometry" />
        </mxCell>
        <mxCell id="vEjCoTIgJUpQcKAmu4vh-113" value="&lt;font style=&quot;font-size: 9px;&quot;&gt;(1, 1)&lt;/font&gt;" style="text;html=1;strokeColor=none;fillColor=none;align=center;verticalAlign=middle;whiteSpace=wrap;rounded=0;" vertex="1" parent="1">
          <mxGeometry x="573" y="181" width="60" height="30" as="geometry" />
        </mxCell>
        <mxCell id="vEjCoTIgJUpQcKAmu4vh-118" value="&lt;span style=&quot;font-size: 8px;&quot;&gt;TESTO&lt;/span&gt;" style="text;html=1;strokeColor=none;fillColor=none;align=center;verticalAlign=middle;whiteSpace=wrap;rounded=0;" vertex="1" parent="1">
          <mxGeometry x="93.5" y="37" width="40" height="30" as="geometry" />
        </mxCell>
        <mxCell id="vEjCoTIgJUpQcKAmu4vh-119" value="&lt;p style=&quot;line-height: 57%;&quot;&gt;&lt;font style=&quot;font-size: 7px;&quot;&gt;DESCRIZIONE CANALE&lt;/font&gt;&lt;/p&gt;" style="text;html=1;strokeColor=none;fillColor=none;align=center;verticalAlign=middle;whiteSpace=wrap;rounded=0;" vertex="1" parent="1">
          <mxGeometry x="685" y="317" width="60" height="30" as="geometry" />
        </mxCell>
        <mxCell id="vEjCoTIgJUpQcKAmu4vh-132" style="edgeStyle=orthogonalEdgeStyle;rounded=0;orthogonalLoop=1;jettySize=auto;html=1;exitX=0.5;exitY=0;exitDx=0;exitDy=0;entryX=1;entryY=0.5;entryDx=0;entryDy=0;endArrow=none;endFill=0;" edge="1" parent="1" source="vEjCoTIgJUpQcKAmu4vh-127" target="vEjCoTIgJUpQcKAmu4vh-18">
          <mxGeometry relative="1" as="geometry">
            <Array as="points">
              <mxPoint x="569" y="345" />
            </Array>
          </mxGeometry>
        </mxCell>
        <mxCell id="vEjCoTIgJUpQcKAmu4vh-140" style="edgeStyle=orthogonalEdgeStyle;rounded=0;orthogonalLoop=1;jettySize=auto;html=1;exitX=1;exitY=1;exitDx=0;exitDy=0;endArrow=none;endFill=0;entryX=0.5;entryY=0;entryDx=0;entryDy=0;" edge="1" parent="1" source="vEjCoTIgJUpQcKAmu4vh-127" target="vEjCoTIgJUpQcKAmu4vh-26">
          <mxGeometry relative="1" as="geometry">
            <mxPoint x="702" y="450" as="targetPoint" />
            <Array as="points">
              <mxPoint x="720" y="385" />
            </Array>
          </mxGeometry>
        </mxCell>
        <mxCell id="vEjCoTIgJUpQcKAmu4vh-150" style="edgeStyle=orthogonalEdgeStyle;rounded=0;orthogonalLoop=1;jettySize=auto;html=1;exitX=1;exitY=0;exitDx=0;exitDy=0;endArrow=oval;endFill=0;" edge="1" parent="1" source="vEjCoTIgJUpQcKAmu4vh-127">
          <mxGeometry relative="1" as="geometry">
            <Array as="points">
              <mxPoint x="633" y="330" />
            </Array>
            <mxPoint x="687" y="330" as="targetPoint" />
          </mxGeometry>
        </mxCell>
        <mxCell id="KJJLjmd7ufImtbG5PTc1-7" style="edgeStyle=orthogonalEdgeStyle;rounded=0;orthogonalLoop=1;jettySize=auto;html=1;exitX=1;exitY=0.25;exitDx=0;exitDy=0;endArrow=none;endFill=0;" edge="1" parent="1" source="vEjCoTIgJUpQcKAmu4vh-127" target="aqizpYm2CFcPnqaB_0yM-41">
          <mxGeometry relative="1" as="geometry" />
        </mxCell>
        <mxCell id="vEjCoTIgJUpQcKAmu4vh-127" value="CANALE" style="rounded=0;whiteSpace=wrap;html=1;fontSize=8;" vertex="1" parent="1">
          <mxGeometry x="553" y="345" width="80" height="40" as="geometry" />
        </mxCell>
        <mxCell id="vEjCoTIgJUpQcKAmu4vh-138" style="edgeStyle=orthogonalEdgeStyle;rounded=0;orthogonalLoop=1;jettySize=auto;html=1;exitX=0.5;exitY=0;exitDx=0;exitDy=0;entryX=0.5;entryY=1;entryDx=0;entryDy=0;endArrow=none;endFill=0;" edge="1" parent="1" source="vEjCoTIgJUpQcKAmu4vh-136" target="vEjCoTIgJUpQcKAmu4vh-127">
          <mxGeometry relative="1" as="geometry" />
        </mxCell>
        <mxCell id="vEjCoTIgJUpQcKAmu4vh-136" value="POSSIEDE" style="rhombus;whiteSpace=wrap;html=1;fontSize=8;" vertex="1" parent="1">
          <mxGeometry x="558" y="467" width="70" height="50" as="geometry" />
        </mxCell>
        <mxCell id="vEjCoTIgJUpQcKAmu4vh-145" value="" style="endArrow=none;html=1;rounded=0;" edge="1" parent="1">
          <mxGeometry width="50" height="50" relative="1" as="geometry">
            <mxPoint x="222" y="710" as="sourcePoint" />
            <mxPoint x="222" y="661" as="targetPoint" />
          </mxGeometry>
        </mxCell>
        <mxCell id="vEjCoTIgJUpQcKAmu4vh-149" value="" style="endArrow=oval;html=1;rounded=0;endFill=1;" edge="1" parent="1">
          <mxGeometry width="50" height="50" relative="1" as="geometry">
            <mxPoint x="222" y="661" as="sourcePoint" />
            <mxPoint x="342" y="661" as="targetPoint" />
          </mxGeometry>
        </mxCell>
        <mxCell id="tyPzEqqiCEX_8LXAU5II-8" value="" style="endArrow=oval;startArrow=none;html=1;rounded=0;exitX=0;exitY=0;exitDx=0;exitDy=0;endFill=1;startFill=0;entryX=1;entryY=0.5;entryDx=0;entryDy=0;" edge="1" parent="1" source="vEjCoTIgJUpQcKAmu4vh-11" target="vEjCoTIgJUpQcKAmu4vh-98">
          <mxGeometry width="50" height="50" relative="1" as="geometry">
            <mxPoint x="350" y="320" as="sourcePoint" />
            <mxPoint x="190" y="260" as="targetPoint" />
          </mxGeometry>
        </mxCell>
        <mxCell id="tyPzEqqiCEX_8LXAU5II-10" value="&lt;font style=&quot;font-size: 7px;&quot;&gt;(0, 1)&lt;/font&gt;" style="text;html=1;strokeColor=none;fillColor=none;align=center;verticalAlign=middle;whiteSpace=wrap;rounded=0;" vertex="1" parent="1">
          <mxGeometry x="169" y="269" width="30" height="18" as="geometry" />
        </mxCell>
        <mxCell id="tyPzEqqiCEX_8LXAU5II-11" value="&lt;span style=&quot;color: rgb(0, 0, 0); font-family: Helvetica; font-size: 7px; font-style: normal; font-variant-ligatures: normal; font-variant-caps: normal; font-weight: 400; letter-spacing: normal; orphans: 2; text-align: center; text-indent: 0px; text-transform: none; widows: 2; word-spacing: 0px; -webkit-text-stroke-width: 0px; background-color: rgb(251, 251, 251); text-decoration-thickness: initial; text-decoration-style: initial; text-decoration-color: initial; float: none; display: inline !important;&quot;&gt;(0, 1)&lt;/span&gt;" style="text;whiteSpace=wrap;html=1;" vertex="1" parent="1">
          <mxGeometry x="191" y="290" width="27" height="20" as="geometry" />
        </mxCell>
        <mxCell id="tyPzEqqiCEX_8LXAU5II-14" value="&lt;font style=&quot;font-size: 7px;&quot;&gt;DATA E ORA&lt;/font&gt;" style="text;html=1;strokeColor=none;fillColor=none;align=center;verticalAlign=middle;whiteSpace=wrap;rounded=0;" vertex="1" parent="1">
          <mxGeometry x="466" y="376" width="60" height="30" as="geometry" />
        </mxCell>
        <mxCell id="tyPzEqqiCEX_8LXAU5II-19" value="" style="endArrow=oval;html=1;rounded=0;endFill=0;" edge="1" parent="1">
          <mxGeometry width="50" height="50" relative="1" as="geometry">
            <mxPoint x="440" y="415" as="sourcePoint" />
            <mxPoint x="470" y="415" as="targetPoint" />
          </mxGeometry>
        </mxCell>
        <mxCell id="tyPzEqqiCEX_8LXAU5II-20" value="&lt;font style=&quot;font-size: 7px;&quot;&gt;BIT&lt;/font&gt;" style="text;html=1;strokeColor=none;fillColor=none;align=center;verticalAlign=middle;whiteSpace=wrap;rounded=0;fontSize=7;" vertex="1" parent="1">
          <mxGeometry x="471" y="403" width="26" height="25" as="geometry" />
        </mxCell>
        <mxCell id="tyPzEqqiCEX_8LXAU5II-27" value="&lt;font style=&quot;font-size: 9px;&quot;&gt;(0, N)&lt;/font&gt;" style="text;html=1;strokeColor=none;fillColor=none;align=center;verticalAlign=middle;whiteSpace=wrap;rounded=0;" vertex="1" parent="1">
          <mxGeometry x="286" y="201" width="60" height="30" as="geometry" />
        </mxCell>
        <mxCell id="tyPzEqqiCEX_8LXAU5II-29" value="&lt;font style=&quot;font-size: 9px;&quot;&gt;(0, N)&lt;/font&gt;" style="text;html=1;strokeColor=none;fillColor=none;align=center;verticalAlign=middle;whiteSpace=wrap;rounded=0;" vertex="1" parent="1">
          <mxGeometry x="928" y="345" width="60" height="30" as="geometry" />
        </mxCell>
        <mxCell id="tyPzEqqiCEX_8LXAU5II-30" value="&lt;font style=&quot;font-size: 9px;&quot;&gt;(1, 1)&lt;/font&gt;" style="text;html=1;strokeColor=none;fillColor=none;align=center;verticalAlign=middle;whiteSpace=wrap;rounded=0;" vertex="1" parent="1">
          <mxGeometry x="512" y="468" width="60" height="30" as="geometry" />
        </mxCell>
        <mxCell id="tyPzEqqiCEX_8LXAU5II-31" value="&lt;font style=&quot;font-size: 9px;&quot;&gt;(1, 1)&lt;/font&gt;" style="text;html=1;strokeColor=none;fillColor=none;align=center;verticalAlign=middle;whiteSpace=wrap;rounded=0;" vertex="1" parent="1">
          <mxGeometry x="580" y="379" width="60" height="30" as="geometry" />
        </mxCell>
        <mxCell id="tyPzEqqiCEX_8LXAU5II-32" value="&lt;font style=&quot;font-size: 9px;&quot;&gt;(0, N)&lt;/font&gt;" style="text;html=1;strokeColor=none;fillColor=none;align=center;verticalAlign=middle;whiteSpace=wrap;rounded=0;" vertex="1" parent="1">
          <mxGeometry x="708" y="400" width="60" height="30" as="geometry" />
        </mxCell>
        <mxCell id="aS-8twhftc0zLGsCLFjA-11" style="edgeStyle=orthogonalEdgeStyle;rounded=0;orthogonalLoop=1;jettySize=auto;html=1;endArrow=none;endFill=0;entryX=0.5;entryY=1;entryDx=0;entryDy=0;" edge="1" parent="1" target="aqizpYm2CFcPnqaB_0yM-41">
          <mxGeometry relative="1" as="geometry">
            <Array as="points">
              <mxPoint x="854" y="354" />
            </Array>
            <mxPoint x="633" y="354" as="sourcePoint" />
            <mxPoint x="860" y="320" as="targetPoint" />
          </mxGeometry>
        </mxCell>
        <mxCell id="aS-8twhftc0zLGsCLFjA-15" style="edgeStyle=orthogonalEdgeStyle;rounded=0;orthogonalLoop=1;jettySize=auto;html=1;exitX=1;exitY=0;exitDx=0;exitDy=0;endArrow=oval;endFill=1;" edge="1" parent="1" source="aS-8twhftc0zLGsCLFjA-19">
          <mxGeometry relative="1" as="geometry">
            <mxPoint x="1528" y="660" as="targetPoint" />
            <Array as="points">
              <mxPoint x="1498" y="660" />
              <mxPoint x="1498" y="660" />
            </Array>
          </mxGeometry>
        </mxCell>
        <mxCell id="aS-8twhftc0zLGsCLFjA-16" style="edgeStyle=orthogonalEdgeStyle;rounded=0;orthogonalLoop=1;jettySize=auto;html=1;exitX=1;exitY=0.5;exitDx=0;exitDy=0;endArrow=oval;endFill=0;" edge="1" parent="1" source="aS-8twhftc0zLGsCLFjA-19">
          <mxGeometry relative="1" as="geometry">
            <mxPoint x="1528" y="680" as="targetPoint" />
          </mxGeometry>
        </mxCell>
        <mxCell id="aS-8twhftc0zLGsCLFjA-17" style="edgeStyle=orthogonalEdgeStyle;rounded=0;orthogonalLoop=1;jettySize=auto;html=1;exitX=1;exitY=0.75;exitDx=0;exitDy=0;endArrow=oval;endFill=0;" edge="1" parent="1" source="aS-8twhftc0zLGsCLFjA-19">
          <mxGeometry relative="1" as="geometry">
            <mxPoint x="1608" y="690" as="targetPoint" />
          </mxGeometry>
        </mxCell>
        <mxCell id="aS-8twhftc0zLGsCLFjA-18" style="edgeStyle=orthogonalEdgeStyle;rounded=0;orthogonalLoop=1;jettySize=auto;html=1;exitX=1;exitY=0.25;exitDx=0;exitDy=0;endArrow=oval;endFill=0;entryX=0;entryY=0.5;entryDx=0;entryDy=0;" edge="1" parent="1" source="aS-8twhftc0zLGsCLFjA-19" target="aS-8twhftc0zLGsCLFjA-37">
          <mxGeometry relative="1" as="geometry">
            <mxPoint x="1608" y="669.6666666666667" as="targetPoint" />
          </mxGeometry>
        </mxCell>
        <mxCell id="aS-8twhftc0zLGsCLFjA-19" value="CONTENUTO MULTIMEDIALE" style="rounded=0;whiteSpace=wrap;html=1;fontSize=8;" vertex="1" parent="1">
          <mxGeometry x="1398" y="660" width="80" height="40" as="geometry" />
        </mxCell>
        <mxCell id="aS-8twhftc0zLGsCLFjA-20" value="VIDEOCLIP" style="rounded=0;whiteSpace=wrap;html=1;fontSize=8;" vertex="1" parent="1">
          <mxGeometry x="1318" y="793" width="80" height="40" as="geometry" />
        </mxCell>
        <mxCell id="aS-8twhftc0zLGsCLFjA-21" style="edgeStyle=orthogonalEdgeStyle;rounded=0;orthogonalLoop=1;jettySize=auto;html=1;exitX=1;exitY=0.5;exitDx=0;exitDy=0;endArrow=oval;endFill=0;entryX=0;entryY=0.5;entryDx=0;entryDy=0;" edge="1" parent="1" source="aS-8twhftc0zLGsCLFjA-23" target="aS-8twhftc0zLGsCLFjA-30">
          <mxGeometry relative="1" as="geometry">
            <mxPoint x="1621" y="813" as="targetPoint" />
          </mxGeometry>
        </mxCell>
        <mxCell id="aS-8twhftc0zLGsCLFjA-22" style="edgeStyle=orthogonalEdgeStyle;rounded=0;orthogonalLoop=1;jettySize=auto;html=1;exitX=0.5;exitY=0;exitDx=0;exitDy=0;endArrow=none;endFill=0;entryX=0.5;entryY=0;entryDx=0;entryDy=0;" edge="1" parent="1" source="aS-8twhftc0zLGsCLFjA-23" target="aS-8twhftc0zLGsCLFjA-20">
          <mxGeometry relative="1" as="geometry">
            <mxPoint x="1438" y="745" as="targetPoint" />
            <Array as="points">
              <mxPoint x="1521" y="745" />
              <mxPoint x="1358" y="745" />
            </Array>
          </mxGeometry>
        </mxCell>
        <mxCell id="aS-8twhftc0zLGsCLFjA-23" value="LIVE" style="rounded=0;whiteSpace=wrap;html=1;fontSize=8;" vertex="1" parent="1">
          <mxGeometry x="1481" y="793" width="80" height="40" as="geometry" />
        </mxCell>
        <mxCell id="aS-8twhftc0zLGsCLFjA-24" style="edgeStyle=orthogonalEdgeStyle;rounded=0;orthogonalLoop=1;jettySize=auto;html=1;exitX=0.5;exitY=0;exitDx=0;exitDy=0;endArrow=none;endFill=0;" edge="1" parent="1" source="aS-8twhftc0zLGsCLFjA-25">
          <mxGeometry relative="1" as="geometry">
            <mxPoint x="1358" y="879" as="targetPoint" />
            <Array as="points">
              <mxPoint x="1418" y="879" />
              <mxPoint x="1358" y="879" />
            </Array>
          </mxGeometry>
        </mxCell>
        <mxCell id="aS-8twhftc0zLGsCLFjA-25" value="CLIP" style="rounded=0;whiteSpace=wrap;html=1;fontSize=8;" vertex="1" parent="1">
          <mxGeometry x="1378" y="909" width="80" height="40" as="geometry" />
        </mxCell>
        <mxCell id="aS-8twhftc0zLGsCLFjA-26" style="edgeStyle=orthogonalEdgeStyle;rounded=0;orthogonalLoop=1;jettySize=auto;html=1;exitX=0.5;exitY=0;exitDx=0;exitDy=0;endArrow=none;endFill=0;" edge="1" parent="1" source="aS-8twhftc0zLGsCLFjA-27">
          <mxGeometry relative="1" as="geometry">
            <mxPoint x="1358" y="879" as="targetPoint" />
            <Array as="points">
              <mxPoint x="1302" y="879" />
              <mxPoint x="1358" y="879" />
            </Array>
          </mxGeometry>
        </mxCell>
        <mxCell id="aS-8twhftc0zLGsCLFjA-27" value="VIDEO" style="rounded=0;whiteSpace=wrap;html=1;fontSize=8;" vertex="1" parent="1">
          <mxGeometry x="1262" y="909" width="80" height="40" as="geometry" />
        </mxCell>
        <mxCell id="aS-8twhftc0zLGsCLFjA-28" style="edgeStyle=orthogonalEdgeStyle;rounded=0;orthogonalLoop=1;jettySize=auto;html=1;exitX=0;exitY=0.5;exitDx=0;exitDy=0;endArrow=oval;endFill=0;" edge="1" parent="1">
          <mxGeometry relative="1" as="geometry">
            <mxPoint x="1278" y="814" as="targetPoint" />
            <mxPoint x="1318" y="814" as="sourcePoint" />
            <Array as="points">
              <mxPoint x="1299" y="814" />
              <mxPoint x="1299" y="814" />
            </Array>
          </mxGeometry>
        </mxCell>
        <mxCell id="aS-8twhftc0zLGsCLFjA-29" value="&lt;font style=&quot;font-size: 8px;&quot;&gt;NUMERO VISUALIZZAZIONI&lt;br&gt;&lt;/font&gt;" style="text;html=1;strokeColor=none;fillColor=none;align=center;verticalAlign=middle;whiteSpace=wrap;rounded=0;" vertex="1" parent="1">
          <mxGeometry x="1215" y="801" width="60" height="30" as="geometry" />
        </mxCell>
        <mxCell id="aS-8twhftc0zLGsCLFjA-30" value="&lt;font style=&quot;font-size: 8px;&quot;&gt;NUMERO VISUALIZZAZIONI MEDIE&lt;br&gt;&lt;/font&gt;" style="text;html=1;strokeColor=none;fillColor=none;align=center;verticalAlign=middle;whiteSpace=wrap;rounded=0;" vertex="1" parent="1">
          <mxGeometry x="1596" y="798" width="82" height="30" as="geometry" />
        </mxCell>
        <mxCell id="aS-8twhftc0zLGsCLFjA-31" value="&lt;font style=&quot;font-size: 8px;&quot;&gt;TITOLO&lt;/font&gt;" style="text;html=1;strokeColor=none;fillColor=none;align=center;verticalAlign=middle;whiteSpace=wrap;rounded=0;" vertex="1" parent="1">
          <mxGeometry x="1518" y="664" width="60" height="30" as="geometry" />
        </mxCell>
        <mxCell id="aS-8twhftc0zLGsCLFjA-32" style="edgeStyle=orthogonalEdgeStyle;rounded=0;orthogonalLoop=1;jettySize=auto;html=1;exitX=1;exitY=0;exitDx=0;exitDy=0;endArrow=oval;endFill=0;" edge="1" parent="1">
          <mxGeometry relative="1" as="geometry">
            <mxPoint x="1528" y="680.4347826086957" as="targetPoint" />
            <mxPoint x="1478" y="680" as="sourcePoint" />
            <Array as="points">
              <mxPoint x="1498" y="680" />
              <mxPoint x="1498" y="680" />
            </Array>
          </mxGeometry>
        </mxCell>
        <mxCell id="aS-8twhftc0zLGsCLFjA-33" style="edgeStyle=orthogonalEdgeStyle;rounded=0;orthogonalLoop=1;jettySize=auto;html=1;exitX=1;exitY=0.5;exitDx=0;exitDy=0;endArrow=oval;endFill=0;" edge="1" parent="1">
          <mxGeometry relative="1" as="geometry">
            <mxPoint x="1528" y="700" as="targetPoint" />
            <mxPoint x="1478" y="700" as="sourcePoint" />
          </mxGeometry>
        </mxCell>
        <mxCell id="aS-8twhftc0zLGsCLFjA-34" value="&lt;font style=&quot;font-size: 8px;&quot;&gt;DURATA&lt;/font&gt;" style="text;html=1;strokeColor=none;fillColor=none;align=center;verticalAlign=middle;whiteSpace=wrap;rounded=0;" vertex="1" parent="1">
          <mxGeometry x="1520" y="684" width="60" height="30" as="geometry" />
        </mxCell>
        <mxCell id="aS-8twhftc0zLGsCLFjA-35" value="&lt;font style=&quot;font-size: 7px;&quot;&gt;(0, N)&lt;/font&gt;" style="text;html=1;strokeColor=none;fillColor=none;align=center;verticalAlign=middle;whiteSpace=wrap;rounded=0;" vertex="1" parent="1">
          <mxGeometry x="1580" y="683" width="20" as="geometry" />
        </mxCell>
        <mxCell id="aS-8twhftc0zLGsCLFjA-36" value="&lt;font style=&quot;font-size: 8px;&quot;&gt;TAG&lt;/font&gt;" style="text;html=1;strokeColor=none;fillColor=none;align=center;verticalAlign=middle;whiteSpace=wrap;rounded=0;" vertex="1" parent="1">
          <mxGeometry x="1592" y="674" width="63" height="30" as="geometry" />
        </mxCell>
        <mxCell id="aS-8twhftc0zLGsCLFjA-37" value="&lt;font style=&quot;font-size: 8px;&quot;&gt;CATEGORIA&lt;/font&gt;" style="text;html=1;strokeColor=none;fillColor=none;align=center;verticalAlign=middle;whiteSpace=wrap;rounded=0;" vertex="1" parent="1">
          <mxGeometry x="1564" y="655" width="60" height="30" as="geometry" />
        </mxCell>
        <mxCell id="aS-8twhftc0zLGsCLFjA-38" value="" style="shape=flexArrow;endArrow=classic;html=1;rounded=0;exitX=0.5;exitY=0;exitDx=0;exitDy=0;" edge="1" parent="1" source="aS-8twhftc0zLGsCLFjA-39">
          <mxGeometry width="50" height="50" relative="1" as="geometry">
            <mxPoint x="1440" y="745" as="sourcePoint" />
            <mxPoint x="1438" y="700" as="targetPoint" />
          </mxGeometry>
        </mxCell>
        <mxCell id="aS-8twhftc0zLGsCLFjA-39" value="&lt;font size=&quot;1&quot;&gt;(t, e)&lt;/font&gt;" style="text;html=1;strokeColor=none;fillColor=none;align=center;verticalAlign=middle;whiteSpace=wrap;rounded=0;" vertex="1" parent="1">
          <mxGeometry x="1408" y="745" width="60" height="30" as="geometry" />
        </mxCell>
        <mxCell id="aS-8twhftc0zLGsCLFjA-40" value="" style="shape=flexArrow;endArrow=classic;html=1;rounded=0;entryX=0.5;entryY=1;entryDx=0;entryDy=0;endWidth=9.230769230769232;endSize=4.871794871794872;" edge="1" parent="1" target="aS-8twhftc0zLGsCLFjA-20">
          <mxGeometry width="50" height="50" relative="1" as="geometry">
            <mxPoint x="1358" y="879" as="sourcePoint" />
            <mxPoint x="1357.7400000000002" y="847" as="targetPoint" />
          </mxGeometry>
        </mxCell>
        <mxCell id="aS-8twhftc0zLGsCLFjA-41" value="&lt;font size=&quot;1&quot;&gt;(t, e)&lt;/font&gt;" style="text;html=1;strokeColor=none;fillColor=none;align=center;verticalAlign=middle;whiteSpace=wrap;rounded=0;" vertex="1" parent="1">
          <mxGeometry x="1328" y="872" width="60" height="30" as="geometry" />
        </mxCell>
        <mxCell id="-7UvKivVEtqqUOtpOeu8-7" style="edgeStyle=orthogonalEdgeStyle;rounded=0;orthogonalLoop=1;jettySize=auto;html=1;exitX=1;exitY=0.5;exitDx=0;exitDy=0;endArrow=oval;endFill=0;" edge="1" parent="1" source="-7UvKivVEtqqUOtpOeu8-4">
          <mxGeometry relative="1" as="geometry">
            <mxPoint x="1500" y="1059.8148148148148" as="targetPoint" />
          </mxGeometry>
        </mxCell>
        <mxCell id="-7UvKivVEtqqUOtpOeu8-4" value="VIDEOCLIP" style="rounded=0;whiteSpace=wrap;html=1;fontSize=8;" vertex="1" parent="1">
          <mxGeometry x="1378" y="1040" width="80" height="40" as="geometry" />
        </mxCell>
        <mxCell id="-7UvKivVEtqqUOtpOeu8-5" style="edgeStyle=orthogonalEdgeStyle;rounded=0;orthogonalLoop=1;jettySize=auto;html=1;exitX=0;exitY=0.5;exitDx=0;exitDy=0;endArrow=oval;endFill=0;" edge="1" parent="1">
          <mxGeometry relative="1" as="geometry">
            <mxPoint x="1338" y="1061" as="targetPoint" />
            <mxPoint x="1378" y="1061" as="sourcePoint" />
            <Array as="points">
              <mxPoint x="1359" y="1061" />
              <mxPoint x="1359" y="1061" />
            </Array>
          </mxGeometry>
        </mxCell>
        <mxCell id="-7UvKivVEtqqUOtpOeu8-6" value="&lt;font style=&quot;font-size: 8px;&quot;&gt;NUMERO VISUALIZZAZIONI&lt;br&gt;&lt;/font&gt;" style="text;html=1;strokeColor=none;fillColor=none;align=center;verticalAlign=middle;whiteSpace=wrap;rounded=0;" vertex="1" parent="1">
          <mxGeometry x="1275" y="1048" width="60" height="30" as="geometry" />
        </mxCell>
        <mxCell id="-7UvKivVEtqqUOtpOeu8-8" value="&lt;font style=&quot;font-size: 8px;&quot;&gt;TIPO&lt;br&gt;&lt;/font&gt;" style="text;html=1;strokeColor=none;fillColor=none;align=center;verticalAlign=middle;whiteSpace=wrap;rounded=0;" vertex="1" parent="1">
          <mxGeometry x="1491" y="1044" width="60" height="30" as="geometry" />
        </mxCell>
        <mxCell id="-7UvKivVEtqqUOtpOeu8-9" style="edgeStyle=orthogonalEdgeStyle;rounded=0;orthogonalLoop=1;jettySize=auto;html=1;exitX=1;exitY=0;exitDx=0;exitDy=0;endArrow=oval;endFill=1;" edge="1" parent="1" source="-7UvKivVEtqqUOtpOeu8-13">
          <mxGeometry relative="1" as="geometry">
            <mxPoint x="2113" y="660" as="targetPoint" />
            <Array as="points">
              <mxPoint x="2083" y="660" />
              <mxPoint x="2083" y="660" />
            </Array>
          </mxGeometry>
        </mxCell>
        <mxCell id="-7UvKivVEtqqUOtpOeu8-10" style="edgeStyle=orthogonalEdgeStyle;rounded=0;orthogonalLoop=1;jettySize=auto;html=1;exitX=1;exitY=0.5;exitDx=0;exitDy=0;endArrow=oval;endFill=0;" edge="1" parent="1" source="-7UvKivVEtqqUOtpOeu8-13">
          <mxGeometry relative="1" as="geometry">
            <mxPoint x="2113" y="680" as="targetPoint" />
          </mxGeometry>
        </mxCell>
        <mxCell id="-7UvKivVEtqqUOtpOeu8-11" style="edgeStyle=orthogonalEdgeStyle;rounded=0;orthogonalLoop=1;jettySize=auto;html=1;exitX=1;exitY=0.75;exitDx=0;exitDy=0;endArrow=oval;endFill=0;" edge="1" parent="1" source="-7UvKivVEtqqUOtpOeu8-13">
          <mxGeometry relative="1" as="geometry">
            <mxPoint x="2193" y="690" as="targetPoint" />
          </mxGeometry>
        </mxCell>
        <mxCell id="-7UvKivVEtqqUOtpOeu8-12" style="edgeStyle=orthogonalEdgeStyle;rounded=0;orthogonalLoop=1;jettySize=auto;html=1;exitX=1;exitY=0.25;exitDx=0;exitDy=0;endArrow=oval;endFill=0;entryX=0;entryY=0.5;entryDx=0;entryDy=0;" edge="1" parent="1" source="-7UvKivVEtqqUOtpOeu8-13" target="-7UvKivVEtqqUOtpOeu8-27">
          <mxGeometry relative="1" as="geometry">
            <mxPoint x="2193" y="669.6666666666667" as="targetPoint" />
          </mxGeometry>
        </mxCell>
        <mxCell id="-7UvKivVEtqqUOtpOeu8-13" value="CONTENUTO MULTIMEDIALE" style="rounded=0;whiteSpace=wrap;html=1;fontSize=8;" vertex="1" parent="1">
          <mxGeometry x="1983" y="660" width="80" height="40" as="geometry" />
        </mxCell>
        <mxCell id="-7UvKivVEtqqUOtpOeu8-14" value="VIDEOCLIP" style="rounded=0;whiteSpace=wrap;html=1;fontSize=8;" vertex="1" parent="1">
          <mxGeometry x="1903" y="793" width="80" height="40" as="geometry" />
        </mxCell>
        <mxCell id="-7UvKivVEtqqUOtpOeu8-15" style="edgeStyle=orthogonalEdgeStyle;rounded=0;orthogonalLoop=1;jettySize=auto;html=1;exitX=1;exitY=0.5;exitDx=0;exitDy=0;endArrow=oval;endFill=0;entryX=0;entryY=0.5;entryDx=0;entryDy=0;" edge="1" parent="1" source="-7UvKivVEtqqUOtpOeu8-17" target="-7UvKivVEtqqUOtpOeu8-20">
          <mxGeometry relative="1" as="geometry">
            <mxPoint x="2206" y="813" as="targetPoint" />
          </mxGeometry>
        </mxCell>
        <mxCell id="-7UvKivVEtqqUOtpOeu8-16" style="edgeStyle=orthogonalEdgeStyle;rounded=0;orthogonalLoop=1;jettySize=auto;html=1;exitX=0.5;exitY=0;exitDx=0;exitDy=0;endArrow=none;endFill=0;entryX=0.5;entryY=0;entryDx=0;entryDy=0;" edge="1" parent="1" source="-7UvKivVEtqqUOtpOeu8-17" target="-7UvKivVEtqqUOtpOeu8-14">
          <mxGeometry relative="1" as="geometry">
            <mxPoint x="2023" y="745" as="targetPoint" />
            <Array as="points">
              <mxPoint x="2106" y="745" />
              <mxPoint x="1943" y="745" />
            </Array>
          </mxGeometry>
        </mxCell>
        <mxCell id="-7UvKivVEtqqUOtpOeu8-17" value="LIVE" style="rounded=0;whiteSpace=wrap;html=1;fontSize=8;" vertex="1" parent="1">
          <mxGeometry x="2066" y="793" width="80" height="40" as="geometry" />
        </mxCell>
        <mxCell id="-7UvKivVEtqqUOtpOeu8-18" style="edgeStyle=orthogonalEdgeStyle;rounded=0;orthogonalLoop=1;jettySize=auto;html=1;exitX=0;exitY=0.5;exitDx=0;exitDy=0;endArrow=oval;endFill=0;" edge="1" parent="1">
          <mxGeometry relative="1" as="geometry">
            <mxPoint x="1863" y="833" as="targetPoint" />
            <mxPoint x="1903" y="833" as="sourcePoint" />
            <Array as="points">
              <mxPoint x="1884" y="833" />
              <mxPoint x="1884" y="833" />
            </Array>
          </mxGeometry>
        </mxCell>
        <mxCell id="-7UvKivVEtqqUOtpOeu8-19" value="&lt;font style=&quot;font-size: 8px;&quot;&gt;NUMERO VISUALIZZAZIONI&lt;br&gt;&lt;/font&gt;" style="text;html=1;strokeColor=none;fillColor=none;align=center;verticalAlign=middle;whiteSpace=wrap;rounded=0;" vertex="1" parent="1">
          <mxGeometry x="1800" y="820" width="60" height="30" as="geometry" />
        </mxCell>
        <mxCell id="-7UvKivVEtqqUOtpOeu8-20" value="&lt;font style=&quot;font-size: 8px;&quot;&gt;NUMERO VISUALIZZAZIONI MEDIE&lt;br&gt;&lt;/font&gt;" style="text;html=1;strokeColor=none;fillColor=none;align=center;verticalAlign=middle;whiteSpace=wrap;rounded=0;" vertex="1" parent="1">
          <mxGeometry x="2181" y="798" width="82" height="30" as="geometry" />
        </mxCell>
        <mxCell id="-7UvKivVEtqqUOtpOeu8-21" value="&lt;font style=&quot;font-size: 8px;&quot;&gt;TITOLO&lt;/font&gt;" style="text;html=1;strokeColor=none;fillColor=none;align=center;verticalAlign=middle;whiteSpace=wrap;rounded=0;" vertex="1" parent="1">
          <mxGeometry x="2103" y="664" width="60" height="30" as="geometry" />
        </mxCell>
        <mxCell id="-7UvKivVEtqqUOtpOeu8-22" style="edgeStyle=orthogonalEdgeStyle;rounded=0;orthogonalLoop=1;jettySize=auto;html=1;exitX=1;exitY=0;exitDx=0;exitDy=0;endArrow=oval;endFill=0;" edge="1" parent="1">
          <mxGeometry relative="1" as="geometry">
            <mxPoint x="2113" y="680.4347826086957" as="targetPoint" />
            <mxPoint x="2063" y="680" as="sourcePoint" />
            <Array as="points">
              <mxPoint x="2083" y="680" />
              <mxPoint x="2083" y="680" />
            </Array>
          </mxGeometry>
        </mxCell>
        <mxCell id="-7UvKivVEtqqUOtpOeu8-23" style="edgeStyle=orthogonalEdgeStyle;rounded=0;orthogonalLoop=1;jettySize=auto;html=1;exitX=1;exitY=0.5;exitDx=0;exitDy=0;endArrow=oval;endFill=0;" edge="1" parent="1">
          <mxGeometry relative="1" as="geometry">
            <mxPoint x="2113" y="700" as="targetPoint" />
            <mxPoint x="2063" y="700" as="sourcePoint" />
          </mxGeometry>
        </mxCell>
        <mxCell id="-7UvKivVEtqqUOtpOeu8-24" value="&lt;font style=&quot;font-size: 8px;&quot;&gt;DURATA&lt;/font&gt;" style="text;html=1;strokeColor=none;fillColor=none;align=center;verticalAlign=middle;whiteSpace=wrap;rounded=0;" vertex="1" parent="1">
          <mxGeometry x="2105" y="684" width="60" height="30" as="geometry" />
        </mxCell>
        <mxCell id="-7UvKivVEtqqUOtpOeu8-25" value="&lt;font style=&quot;font-size: 7px;&quot;&gt;(0, N)&lt;/font&gt;" style="text;html=1;strokeColor=none;fillColor=none;align=center;verticalAlign=middle;whiteSpace=wrap;rounded=0;" vertex="1" parent="1">
          <mxGeometry x="2165" y="683" width="20" as="geometry" />
        </mxCell>
        <mxCell id="-7UvKivVEtqqUOtpOeu8-26" value="&lt;font style=&quot;font-size: 8px;&quot;&gt;TAG&lt;/font&gt;" style="text;html=1;strokeColor=none;fillColor=none;align=center;verticalAlign=middle;whiteSpace=wrap;rounded=0;" vertex="1" parent="1">
          <mxGeometry x="2177" y="674" width="63" height="30" as="geometry" />
        </mxCell>
        <mxCell id="-7UvKivVEtqqUOtpOeu8-27" value="&lt;font style=&quot;font-size: 8px;&quot;&gt;CATEGORIA&lt;/font&gt;" style="text;html=1;strokeColor=none;fillColor=none;align=center;verticalAlign=middle;whiteSpace=wrap;rounded=0;" vertex="1" parent="1">
          <mxGeometry x="2149" y="655" width="60" height="30" as="geometry" />
        </mxCell>
        <mxCell id="-7UvKivVEtqqUOtpOeu8-28" value="" style="shape=flexArrow;endArrow=classic;html=1;rounded=0;exitX=0.5;exitY=0;exitDx=0;exitDy=0;" edge="1" parent="1" source="-7UvKivVEtqqUOtpOeu8-29">
          <mxGeometry width="50" height="50" relative="1" as="geometry">
            <mxPoint x="2025" y="745" as="sourcePoint" />
            <mxPoint x="2023" y="700" as="targetPoint" />
          </mxGeometry>
        </mxCell>
        <mxCell id="-7UvKivVEtqqUOtpOeu8-29" value="&lt;font size=&quot;1&quot;&gt;(t, e)&lt;/font&gt;" style="text;html=1;strokeColor=none;fillColor=none;align=center;verticalAlign=middle;whiteSpace=wrap;rounded=0;" vertex="1" parent="1">
          <mxGeometry x="1993" y="745" width="60" height="30" as="geometry" />
        </mxCell>
        <mxCell id="-7UvKivVEtqqUOtpOeu8-30" style="edgeStyle=orthogonalEdgeStyle;rounded=0;orthogonalLoop=1;jettySize=auto;html=1;exitX=0;exitY=0.5;exitDx=0;exitDy=0;endArrow=oval;endFill=0;" edge="1" parent="1">
          <mxGeometry relative="1" as="geometry">
            <mxPoint x="1863" y="793" as="targetPoint" />
            <mxPoint x="1903" y="793" as="sourcePoint" />
            <Array as="points">
              <mxPoint x="1884" y="793" />
              <mxPoint x="1884" y="793" />
            </Array>
          </mxGeometry>
        </mxCell>
        <mxCell id="-7UvKivVEtqqUOtpOeu8-31" value="&lt;font style=&quot;font-size: 8px;&quot;&gt;TIPO&lt;br&gt;&lt;/font&gt;" style="text;html=1;strokeColor=none;fillColor=none;align=center;verticalAlign=middle;whiteSpace=wrap;rounded=0;" vertex="1" parent="1">
          <mxGeometry x="1814" y="779" width="60" height="30" as="geometry" />
        </mxCell>
        <mxCell id="-7UvKivVEtqqUOtpOeu8-32" value="&lt;font style=&quot;font-size: 8px;&quot;&gt;URL&lt;br&gt;&lt;/font&gt;" style="text;html=1;strokeColor=none;fillColor=none;align=center;verticalAlign=middle;whiteSpace=wrap;rounded=0;" vertex="1" parent="1">
          <mxGeometry x="1516" y="643" width="60" height="30" as="geometry" />
        </mxCell>
        <mxCell id="-7UvKivVEtqqUOtpOeu8-33" value="&lt;font style=&quot;font-size: 8px;&quot;&gt;URL&lt;br&gt;&lt;/font&gt;" style="text;html=1;strokeColor=none;fillColor=none;align=center;verticalAlign=middle;whiteSpace=wrap;rounded=0;" vertex="1" parent="1">
          <mxGeometry x="2100" y="644" width="60" height="30" as="geometry" />
        </mxCell>
        <mxCell id="-7UvKivVEtqqUOtpOeu8-34" style="edgeStyle=orthogonalEdgeStyle;rounded=0;orthogonalLoop=1;jettySize=auto;html=1;exitX=1;exitY=0;exitDx=0;exitDy=0;endArrow=oval;endFill=1;" edge="1" parent="1" source="-7UvKivVEtqqUOtpOeu8-38">
          <mxGeometry relative="1" as="geometry">
            <mxPoint x="2623" y="643" as="targetPoint" />
            <Array as="points">
              <mxPoint x="2593" y="643" />
              <mxPoint x="2593" y="643" />
            </Array>
          </mxGeometry>
        </mxCell>
        <mxCell id="-7UvKivVEtqqUOtpOeu8-35" style="edgeStyle=orthogonalEdgeStyle;rounded=0;orthogonalLoop=1;jettySize=auto;html=1;exitX=1;exitY=0.5;exitDx=0;exitDy=0;endArrow=oval;endFill=0;" edge="1" parent="1" source="-7UvKivVEtqqUOtpOeu8-38">
          <mxGeometry relative="1" as="geometry">
            <mxPoint x="2623" y="663" as="targetPoint" />
          </mxGeometry>
        </mxCell>
        <mxCell id="-7UvKivVEtqqUOtpOeu8-36" style="edgeStyle=orthogonalEdgeStyle;rounded=0;orthogonalLoop=1;jettySize=auto;html=1;exitX=1;exitY=0.75;exitDx=0;exitDy=0;endArrow=oval;endFill=0;" edge="1" parent="1" source="-7UvKivVEtqqUOtpOeu8-38">
          <mxGeometry relative="1" as="geometry">
            <mxPoint x="2703" y="673" as="targetPoint" />
          </mxGeometry>
        </mxCell>
        <mxCell id="-7UvKivVEtqqUOtpOeu8-37" style="edgeStyle=orthogonalEdgeStyle;rounded=0;orthogonalLoop=1;jettySize=auto;html=1;exitX=1;exitY=0.25;exitDx=0;exitDy=0;endArrow=oval;endFill=0;entryX=0;entryY=0.5;entryDx=0;entryDy=0;" edge="1" parent="1" source="-7UvKivVEtqqUOtpOeu8-38" target="-7UvKivVEtqqUOtpOeu8-52">
          <mxGeometry relative="1" as="geometry">
            <mxPoint x="2703" y="652.6666666666667" as="targetPoint" />
          </mxGeometry>
        </mxCell>
        <mxCell id="-7UvKivVEtqqUOtpOeu8-38" value="CONTENUTO MULTIMEDIALE" style="rounded=0;whiteSpace=wrap;html=1;fontSize=8;" vertex="1" parent="1">
          <mxGeometry x="2493" y="643" width="80" height="40" as="geometry" />
        </mxCell>
        <mxCell id="-7UvKivVEtqqUOtpOeu8-43" style="edgeStyle=orthogonalEdgeStyle;rounded=0;orthogonalLoop=1;jettySize=auto;html=1;exitX=0;exitY=0.5;exitDx=0;exitDy=0;endArrow=oval;endFill=0;" edge="1" parent="1">
          <mxGeometry relative="1" as="geometry">
            <mxPoint x="2453" y="683" as="targetPoint" />
            <mxPoint x="2493" y="683" as="sourcePoint" />
            <Array as="points">
              <mxPoint x="2474" y="683" />
              <mxPoint x="2474" y="683" />
            </Array>
          </mxGeometry>
        </mxCell>
        <mxCell id="-7UvKivVEtqqUOtpOeu8-44" value="&lt;font style=&quot;font-size: 8px;&quot;&gt;NUMERO VISUALIZZAZIONI&lt;br&gt;&lt;/font&gt;" style="text;html=1;strokeColor=none;fillColor=none;align=center;verticalAlign=middle;whiteSpace=wrap;rounded=0;" vertex="1" parent="1">
          <mxGeometry x="2390" y="670" width="60" height="30" as="geometry" />
        </mxCell>
        <mxCell id="-7UvKivVEtqqUOtpOeu8-46" value="&lt;font style=&quot;font-size: 8px;&quot;&gt;TITOLO&lt;/font&gt;" style="text;html=1;strokeColor=none;fillColor=none;align=center;verticalAlign=middle;whiteSpace=wrap;rounded=0;" vertex="1" parent="1">
          <mxGeometry x="2613" y="647" width="60" height="30" as="geometry" />
        </mxCell>
        <mxCell id="-7UvKivVEtqqUOtpOeu8-47" style="edgeStyle=orthogonalEdgeStyle;rounded=0;orthogonalLoop=1;jettySize=auto;html=1;exitX=1;exitY=0;exitDx=0;exitDy=0;endArrow=oval;endFill=0;" edge="1" parent="1">
          <mxGeometry relative="1" as="geometry">
            <mxPoint x="2623" y="663.4347826086957" as="targetPoint" />
            <mxPoint x="2573" y="663" as="sourcePoint" />
            <Array as="points">
              <mxPoint x="2593" y="663" />
              <mxPoint x="2593" y="663" />
            </Array>
          </mxGeometry>
        </mxCell>
        <mxCell id="-7UvKivVEtqqUOtpOeu8-48" style="edgeStyle=orthogonalEdgeStyle;rounded=0;orthogonalLoop=1;jettySize=auto;html=1;exitX=1;exitY=0.5;exitDx=0;exitDy=0;endArrow=oval;endFill=0;" edge="1" parent="1">
          <mxGeometry relative="1" as="geometry">
            <mxPoint x="2623" y="683" as="targetPoint" />
            <mxPoint x="2573" y="683" as="sourcePoint" />
          </mxGeometry>
        </mxCell>
        <mxCell id="-7UvKivVEtqqUOtpOeu8-49" value="&lt;font style=&quot;font-size: 8px;&quot;&gt;DURATA&lt;/font&gt;" style="text;html=1;strokeColor=none;fillColor=none;align=center;verticalAlign=middle;whiteSpace=wrap;rounded=0;" vertex="1" parent="1">
          <mxGeometry x="2615" y="667" width="60" height="30" as="geometry" />
        </mxCell>
        <mxCell id="-7UvKivVEtqqUOtpOeu8-50" value="&lt;font style=&quot;font-size: 7px;&quot;&gt;(0, 1)&lt;/font&gt;" style="text;html=1;strokeColor=none;fillColor=none;align=center;verticalAlign=middle;whiteSpace=wrap;rounded=0;" vertex="1" parent="1">
          <mxGeometry x="2675" y="666" width="20" as="geometry" />
        </mxCell>
        <mxCell id="-7UvKivVEtqqUOtpOeu8-51" value="&lt;font style=&quot;font-size: 8px;&quot;&gt;&amp;nbsp;VISUALIZZAZIONI MEDIE&lt;/font&gt;" style="text;html=1;strokeColor=none;fillColor=none;align=center;verticalAlign=middle;whiteSpace=wrap;rounded=0;" vertex="1" parent="1">
          <mxGeometry x="2702" y="657" width="103" height="30" as="geometry" />
        </mxCell>
        <mxCell id="-7UvKivVEtqqUOtpOeu8-52" value="&lt;font style=&quot;font-size: 8px;&quot;&gt;CATEGORIA&lt;/font&gt;" style="text;html=1;strokeColor=none;fillColor=none;align=center;verticalAlign=middle;whiteSpace=wrap;rounded=0;" vertex="1" parent="1">
          <mxGeometry x="2659" y="638" width="60" height="30" as="geometry" />
        </mxCell>
        <mxCell id="-7UvKivVEtqqUOtpOeu8-55" style="edgeStyle=orthogonalEdgeStyle;rounded=0;orthogonalLoop=1;jettySize=auto;html=1;exitX=0;exitY=0.5;exitDx=0;exitDy=0;endArrow=oval;endFill=0;" edge="1" parent="1">
          <mxGeometry relative="1" as="geometry">
            <mxPoint x="2453" y="643" as="targetPoint" />
            <mxPoint x="2493" y="643" as="sourcePoint" />
            <Array as="points">
              <mxPoint x="2474" y="643" />
              <mxPoint x="2474" y="643" />
            </Array>
          </mxGeometry>
        </mxCell>
        <mxCell id="-7UvKivVEtqqUOtpOeu8-56" value="&lt;font style=&quot;font-size: 8px;&quot;&gt;TIPO&lt;br&gt;&lt;/font&gt;" style="text;html=1;strokeColor=none;fillColor=none;align=center;verticalAlign=middle;whiteSpace=wrap;rounded=0;" vertex="1" parent="1">
          <mxGeometry x="2404" y="629" width="60" height="30" as="geometry" />
        </mxCell>
        <mxCell id="-7UvKivVEtqqUOtpOeu8-57" value="&lt;font style=&quot;font-size: 8px;&quot;&gt;URL&lt;br&gt;&lt;/font&gt;" style="text;html=1;strokeColor=none;fillColor=none;align=center;verticalAlign=middle;whiteSpace=wrap;rounded=0;" vertex="1" parent="1">
          <mxGeometry x="2610" y="627" width="60" height="30" as="geometry" />
        </mxCell>
        <mxCell id="-7UvKivVEtqqUOtpOeu8-62" value="&lt;span style=&quot;font-size: 7px;&quot;&gt;(0, 1)&lt;/span&gt;" style="text;html=1;strokeColor=none;fillColor=none;align=center;verticalAlign=middle;whiteSpace=wrap;rounded=0;" vertex="1" parent="1">
          <mxGeometry x="2463" y="674" width="27" height="2" as="geometry" />
        </mxCell>
        <mxCell id="-7UvKivVEtqqUOtpOeu8-63" value="" style="endArrow=none;html=1;rounded=0;exitX=0;exitY=0.5;exitDx=0;exitDy=0;" edge="1" parent="1" source="-7UvKivVEtqqUOtpOeu8-64">
          <mxGeometry width="50" height="50" relative="1" as="geometry">
            <mxPoint x="460" y="290" as="sourcePoint" />
            <mxPoint x="300" y="290" as="targetPoint" />
            <Array as="points">
              <mxPoint x="420" y="171" />
              <mxPoint x="420" y="220" />
              <mxPoint x="420" y="290" />
            </Array>
          </mxGeometry>
        </mxCell>
        <mxCell id="v9OHgqMt4ilXEsjnLe-m-7" style="edgeStyle=orthogonalEdgeStyle;rounded=0;orthogonalLoop=1;jettySize=auto;html=1;exitX=1;exitY=0.5;exitDx=0;exitDy=0;entryX=0;entryY=0.5;entryDx=0;entryDy=0;endArrow=none;endFill=0;" edge="1" parent="1" source="-7UvKivVEtqqUOtpOeu8-64" target="v9OHgqMt4ilXEsjnLe-m-6">
          <mxGeometry relative="1" as="geometry" />
        </mxCell>
        <mxCell id="-7UvKivVEtqqUOtpOeu8-64" value="EFFETTUA" style="rhombus;whiteSpace=wrap;html=1;fontSize=8;" vertex="1" parent="1">
          <mxGeometry x="461" y="149" width="54" height="44" as="geometry" />
        </mxCell>
        <mxCell id="-7UvKivVEtqqUOtpOeu8-66" value="&lt;font style=&quot;font-size: 9px;&quot;&gt;(0, N)&lt;/font&gt;" style="text;html=1;strokeColor=none;fillColor=none;align=center;verticalAlign=middle;whiteSpace=wrap;rounded=0;" vertex="1" parent="1">
          <mxGeometry x="411" y="167" width="60" height="30" as="geometry" />
        </mxCell>
        <mxCell id="v9OHgqMt4ilXEsjnLe-m-1" value="MESSAGGIO PRIVATO" style="rounded=0;whiteSpace=wrap;html=1;fontSize=8;" vertex="1" parent="1">
          <mxGeometry x="220" y="49" width="80" height="40" as="geometry" />
        </mxCell>
        <mxCell id="v9OHgqMt4ilXEsjnLe-m-4" style="edgeStyle=orthogonalEdgeStyle;rounded=0;orthogonalLoop=1;jettySize=auto;html=1;exitX=0.5;exitY=0;exitDx=0;exitDy=0;entryX=0;entryY=0.5;entryDx=0;entryDy=0;endArrow=none;endFill=0;" edge="1" parent="1" source="v9OHgqMt4ilXEsjnLe-m-3" target="v9OHgqMt4ilXEsjnLe-m-1">
          <mxGeometry relative="1" as="geometry" />
        </mxCell>
        <mxCell id="v9OHgqMt4ilXEsjnLe-m-3" value="RICEVE" style="rhombus;whiteSpace=wrap;html=1;fontSize=8;" vertex="1" parent="1">
          <mxGeometry x="149" y="121" width="70" height="50" as="geometry" />
        </mxCell>
        <mxCell id="v9OHgqMt4ilXEsjnLe-m-10" style="edgeStyle=orthogonalEdgeStyle;rounded=0;orthogonalLoop=1;jettySize=auto;html=1;exitX=0.5;exitY=1;exitDx=0;exitDy=0;entryX=0.5;entryY=0;entryDx=0;entryDy=0;endArrow=none;endFill=0;" edge="1" parent="1" target="v9OHgqMt4ilXEsjnLe-m-8">
          <mxGeometry relative="1" as="geometry">
            <mxPoint x="589" y="191.0000000000001" as="sourcePoint" />
          </mxGeometry>
        </mxCell>
        <mxCell id="v9OHgqMt4ilXEsjnLe-m-6" value="SUBSCRIPTION" style="rounded=0;whiteSpace=wrap;html=1;fontSize=8;" vertex="1" parent="1">
          <mxGeometry x="558" y="151" width="80" height="40" as="geometry" />
        </mxCell>
        <mxCell id="v9OHgqMt4ilXEsjnLe-m-11" style="edgeStyle=orthogonalEdgeStyle;rounded=0;orthogonalLoop=1;jettySize=auto;html=1;exitX=0.5;exitY=1;exitDx=0;exitDy=0;entryX=0.5;entryY=0;entryDx=0;entryDy=0;endArrow=none;endFill=0;" edge="1" parent="1" source="v9OHgqMt4ilXEsjnLe-m-8">
          <mxGeometry relative="1" as="geometry">
            <Array as="points">
              <mxPoint x="592" y="345" />
            </Array>
            <mxPoint x="584" y="345" as="targetPoint" />
          </mxGeometry>
        </mxCell>
        <mxCell id="v9OHgqMt4ilXEsjnLe-m-8" value="REGISTRA" style="rhombus;whiteSpace=wrap;html=1;fontSize=8;" vertex="1" parent="1">
          <mxGeometry x="565" y="224" width="54" height="44" as="geometry" />
        </mxCell>
        <mxCell id="v9OHgqMt4ilXEsjnLe-m-14" value="&lt;font size=&quot;1&quot;&gt;(1, 1)&lt;/font&gt;" style="text;html=1;strokeColor=none;fillColor=none;align=center;verticalAlign=middle;whiteSpace=wrap;rounded=0;" vertex="1" parent="1">
          <mxGeometry x="494" y="166" width="60" height="30" as="geometry" />
        </mxCell>
        <mxCell id="v9OHgqMt4ilXEsjnLe-m-15" value="" style="endArrow=oval;html=1;rounded=0;endFill=1;" edge="1" parent="1">
          <mxGeometry width="50" height="50" relative="1" as="geometry">
            <mxPoint x="630" y="210" as="sourcePoint" />
            <mxPoint x="660" y="165" as="targetPoint" />
            <Array as="points">
              <mxPoint x="540" y="210" />
              <mxPoint x="540" y="130" />
              <mxPoint x="660" y="130" />
            </Array>
          </mxGeometry>
        </mxCell>
        <mxCell id="v9OHgqMt4ilXEsjnLe-m-18" style="edgeStyle=orthogonalEdgeStyle;rounded=0;orthogonalLoop=1;jettySize=auto;html=1;exitX=1;exitY=0.5;exitDx=0;exitDy=0;endArrow=oval;endFill=0;entryX=0;entryY=0.5;entryDx=0;entryDy=0;" edge="1" parent="1" target="v9OHgqMt4ilXEsjnLe-m-19">
          <mxGeometry relative="1" as="geometry">
            <mxPoint x="698" y="151" as="targetPoint" />
            <mxPoint x="638" y="151" as="sourcePoint" />
          </mxGeometry>
        </mxCell>
        <mxCell id="v9OHgqMt4ilXEsjnLe-m-19" value="&lt;font style=&quot;font-size: 8px;&quot;&gt;DATA INIZIO&lt;br&gt;&lt;/font&gt;" style="text;html=1;strokeColor=none;fillColor=none;align=center;verticalAlign=middle;whiteSpace=wrap;rounded=0;" vertex="1" parent="1">
          <mxGeometry x="673" y="136" width="82" height="30" as="geometry" />
        </mxCell>
        <mxCell id="v9OHgqMt4ilXEsjnLe-m-20" style="edgeStyle=orthogonalEdgeStyle;rounded=0;orthogonalLoop=1;jettySize=auto;html=1;exitX=1;exitY=0.5;exitDx=0;exitDy=0;endArrow=oval;endFill=0;entryX=0;entryY=0.5;entryDx=0;entryDy=0;" edge="1" parent="1">
          <mxGeometry relative="1" as="geometry">
            <mxPoint x="697" y="191" as="targetPoint" />
            <mxPoint x="638" y="191" as="sourcePoint" />
          </mxGeometry>
        </mxCell>
        <mxCell id="v9OHgqMt4ilXEsjnLe-m-24" value="&lt;font style=&quot;font-size: 9px;&quot;&gt;(0, 1)&lt;/font&gt;" style="text;html=1;strokeColor=none;fillColor=none;align=center;verticalAlign=middle;whiteSpace=wrap;rounded=0;" vertex="1" parent="1">
          <mxGeometry x="649" y="169.5" width="57" height="25" as="geometry" />
        </mxCell>
        <mxCell id="v9OHgqMt4ilXEsjnLe-m-25" value="&lt;font style=&quot;font-size: 9px;&quot;&gt;(0, N)&lt;/font&gt;" style="text;html=1;strokeColor=none;fillColor=none;align=center;verticalAlign=middle;whiteSpace=wrap;rounded=0;" vertex="1" parent="1">
          <mxGeometry x="576" y="261" width="57" height="25" as="geometry" />
        </mxCell>
        <mxCell id="p9D_7lrXZ73t9YB95CeX-1" value="&lt;font style=&quot;font-size: 8px;&quot;&gt;DATA FINE&lt;br&gt;&lt;/font&gt;" style="text;html=1;strokeColor=none;fillColor=none;align=center;verticalAlign=middle;whiteSpace=wrap;rounded=0;" vertex="1" parent="1">
          <mxGeometry x="685" y="175" width="82" height="30" as="geometry" />
        </mxCell>
        <mxCell id="p9D_7lrXZ73t9YB95CeX-2" style="edgeStyle=orthogonalEdgeStyle;rounded=0;orthogonalLoop=1;jettySize=auto;html=1;exitX=0.5;exitY=0;exitDx=0;exitDy=0;endArrow=none;endFill=0;entryX=0.5;entryY=1;entryDx=0;entryDy=0;" edge="1" parent="1" source="p9D_7lrXZ73t9YB95CeX-3">
          <mxGeometry relative="1" as="geometry">
            <mxPoint x="2533" y="683" as="targetPoint" />
          </mxGeometry>
        </mxCell>
        <mxCell id="p9D_7lrXZ73t9YB95CeX-3" value="ASSOCIATO" style="rhombus;whiteSpace=wrap;html=1;fontSize=8;" vertex="1" parent="1">
          <mxGeometry x="2498" y="719" width="70" height="50" as="geometry" />
        </mxCell>
        <mxCell id="p9D_7lrXZ73t9YB95CeX-4" style="edgeStyle=orthogonalEdgeStyle;rounded=0;orthogonalLoop=1;jettySize=auto;html=1;exitX=0;exitY=0;exitDx=0;exitDy=0;endArrow=oval;endFill=0;" edge="1" parent="1" source="p9D_7lrXZ73t9YB95CeX-8">
          <mxGeometry relative="1" as="geometry">
            <mxPoint x="2492.25" y="802" as="targetPoint" />
          </mxGeometry>
        </mxCell>
        <mxCell id="p9D_7lrXZ73t9YB95CeX-6" style="edgeStyle=orthogonalEdgeStyle;rounded=0;orthogonalLoop=1;jettySize=auto;html=1;exitX=0.75;exitY=0;exitDx=0;exitDy=0;entryX=0.5;entryY=1;entryDx=0;entryDy=0;endArrow=none;endFill=0;" edge="1" parent="1">
          <mxGeometry relative="1" as="geometry">
            <Array as="points">
              <mxPoint x="2533" y="853" />
            </Array>
            <mxPoint x="2537" y="853" as="sourcePoint" />
            <mxPoint x="2534" y="770" as="targetPoint" />
          </mxGeometry>
        </mxCell>
        <mxCell id="p9D_7lrXZ73t9YB95CeX-8" value="TAG" style="rounded=0;whiteSpace=wrap;html=1;fontSize=8;" vertex="1" parent="1">
          <mxGeometry x="2493" y="827" width="80" height="40" as="geometry" />
        </mxCell>
        <mxCell id="p9D_7lrXZ73t9YB95CeX-9" value="&lt;font style=&quot;font-size: 9px;&quot;&gt;(1, 1)&lt;/font&gt;" style="text;html=1;strokeColor=none;fillColor=none;align=center;verticalAlign=middle;whiteSpace=wrap;rounded=0;" vertex="1" parent="1">
          <mxGeometry x="2540" y="778" width="60" height="30" as="geometry" />
        </mxCell>
        <mxCell id="p9D_7lrXZ73t9YB95CeX-10" value="&lt;font style=&quot;font-size: 9px;&quot;&gt;(0, N)&lt;/font&gt;" style="text;html=1;strokeColor=none;fillColor=none;align=center;verticalAlign=middle;whiteSpace=wrap;rounded=0;" vertex="1" parent="1">
          <mxGeometry x="2522" y="678" width="60" height="30" as="geometry" />
        </mxCell>
        <mxCell id="p9D_7lrXZ73t9YB95CeX-11" value="&lt;font style=&quot;font-size: 8px;&quot;&gt;NOME_TAG&lt;/font&gt;" style="text;html=1;strokeColor=none;fillColor=none;align=center;verticalAlign=middle;whiteSpace=wrap;rounded=0;" vertex="1" parent="1">
          <mxGeometry x="2458" y="777" width="60" height="30" as="geometry" />
        </mxCell>
        <mxCell id="p9D_7lrXZ73t9YB95CeX-12" value="" style="endArrow=none;html=1;rounded=0;" edge="1" parent="1">
          <mxGeometry width="50" height="50" relative="1" as="geometry">
            <mxPoint x="2462" y="818" as="sourcePoint" />
            <mxPoint x="2462" y="817" as="targetPoint" />
          </mxGeometry>
        </mxCell>
        <mxCell id="p9D_7lrXZ73t9YB95CeX-13" value="" style="endArrow=oval;html=1;rounded=0;endFill=1;" edge="1" parent="1">
          <mxGeometry width="50" height="50" relative="1" as="geometry">
            <mxPoint x="2462" y="817" as="sourcePoint" />
            <mxPoint x="2582" y="817" as="targetPoint" />
          </mxGeometry>
        </mxCell>
        <mxCell id="EwUT0WBinwEKpefRujVR-3" style="edgeStyle=orthogonalEdgeStyle;rounded=0;orthogonalLoop=1;jettySize=auto;html=1;endArrow=oval;endFill=0;exitX=0.84;exitY=-0.083;exitDx=0;exitDy=0;exitPerimeter=0;" edge="1" parent="1">
          <mxGeometry relative="1" as="geometry">
            <Array as="points">
              <mxPoint x="620" y="308" />
            </Array>
            <mxPoint x="687" y="308" as="targetPoint" />
            <mxPoint x="620.2" y="344.67999999999995" as="sourcePoint" />
          </mxGeometry>
        </mxCell>
        <mxCell id="EwUT0WBinwEKpefRujVR-4" value="&lt;p style=&quot;line-height: 80%;&quot;&gt;&lt;span style=&quot;font-size: 7px;&quot;&gt;FOTO PROFILO&lt;/span&gt;&lt;/p&gt;" style="text;html=1;strokeColor=none;fillColor=none;align=center;verticalAlign=middle;whiteSpace=wrap;rounded=0;" vertex="1" parent="1">
          <mxGeometry x="689" y="293" width="60" height="30" as="geometry" />
        </mxCell>
        <mxCell id="EwUT0WBinwEKpefRujVR-7" value="&lt;font style=&quot;font-size: 7px;&quot;&gt;(0, 1)&lt;/font&gt;" style="text;html=1;strokeColor=none;fillColor=none;align=center;verticalAlign=middle;whiteSpace=wrap;rounded=0;" vertex="1" parent="1">
          <mxGeometry x="638" y="287.5" width="57" height="25" as="geometry" />
        </mxCell>
        <mxCell id="EwUT0WBinwEKpefRujVR-8" style="edgeStyle=orthogonalEdgeStyle;rounded=0;orthogonalLoop=1;jettySize=auto;html=1;endArrow=oval;endFill=0;exitX=0.708;exitY=0.03;exitDx=0;exitDy=0;exitPerimeter=0;" edge="1" parent="1">
          <mxGeometry relative="1" as="geometry">
            <Array as="points">
              <mxPoint x="610" y="291" />
            </Array>
            <mxPoint x="687" y="291" as="targetPoint" />
            <mxPoint x="609.6399999999999" y="345.20000000000005" as="sourcePoint" />
          </mxGeometry>
        </mxCell>
        <mxCell id="EwUT0WBinwEKpefRujVR-9" value="&lt;p style=&quot;line-height: 80%;&quot;&gt;&lt;span style=&quot;font-size: 7px;&quot;&gt;TRAILER&lt;/span&gt;&lt;/p&gt;" style="text;html=1;strokeColor=none;fillColor=none;align=center;verticalAlign=middle;whiteSpace=wrap;rounded=0;" vertex="1" parent="1">
          <mxGeometry x="685" y="275" width="60" height="30" as="geometry" />
        </mxCell>
        <mxCell id="EwUT0WBinwEKpefRujVR-10" value="&lt;font style=&quot;font-size: 7px;&quot;&gt;(0, 1)&lt;/font&gt;" style="text;html=1;strokeColor=none;fillColor=none;align=center;verticalAlign=middle;whiteSpace=wrap;rounded=0;" vertex="1" parent="1">
          <mxGeometry x="638" y="271.5" width="57" height="25" as="geometry" />
        </mxCell>
        <mxCell id="EwUT0WBinwEKpefRujVR-13" value="&lt;font style=&quot;font-size: 9px;&quot;&gt;(1, 1)&lt;/font&gt;" style="text;html=1;strokeColor=none;fillColor=none;align=center;verticalAlign=middle;whiteSpace=wrap;rounded=0;" vertex="1" parent="1">
          <mxGeometry x="174.5" y="67" width="60" height="30" as="geometry" />
        </mxCell>
        <mxCell id="EwUT0WBinwEKpefRujVR-14" value="" style="endArrow=oval;html=1;rounded=0;endFill=1;" edge="1" parent="1">
          <mxGeometry width="50" height="50" relative="1" as="geometry">
            <mxPoint x="330" y="110" as="sourcePoint" />
            <mxPoint x="210" y="110" as="targetPoint" />
            <Array as="points">
              <mxPoint x="360" y="110" />
              <mxPoint x="360" y="30" />
              <mxPoint x="170" y="30" />
              <mxPoint x="170" y="110" />
            </Array>
          </mxGeometry>
        </mxCell>
        <mxCell id="EwUT0WBinwEKpefRujVR-15" value="DONAZIONE" style="rounded=0;whiteSpace=wrap;html=1;fontSize=8;" vertex="1" parent="1">
          <mxGeometry x="354" y="386" width="86" height="37" as="geometry" />
        </mxCell>
        <mxCell id="EwUT0WBinwEKpefRujVR-19" style="edgeStyle=orthogonalEdgeStyle;rounded=0;orthogonalLoop=1;jettySize=auto;html=1;exitX=0.5;exitY=0;exitDx=0;exitDy=0;entryX=0.5;entryY=1;entryDx=0;entryDy=0;endArrow=none;endFill=0;" edge="1" parent="1" source="EwUT0WBinwEKpefRujVR-18" target="EwUT0WBinwEKpefRujVR-15">
          <mxGeometry relative="1" as="geometry" />
        </mxCell>
        <mxCell id="EwUT0WBinwEKpefRujVR-18" value="OTTIENE" style="rhombus;whiteSpace=wrap;html=1;fontSize=8;" vertex="1" parent="1">
          <mxGeometry x="372" y="446" width="50" height="40" as="geometry" />
        </mxCell>
        <mxCell id="EwUT0WBinwEKpefRujVR-21" value="&lt;font style=&quot;font-size: 7px;&quot;&gt;(1, 1)&lt;/font&gt;" style="text;html=1;strokeColor=none;fillColor=none;align=center;verticalAlign=middle;whiteSpace=wrap;rounded=0;" vertex="1" parent="1">
          <mxGeometry x="379" y="354" width="57" height="25" as="geometry" />
        </mxCell>
        <mxCell id="EwUT0WBinwEKpefRujVR-22" value="" style="endArrow=oval;html=1;rounded=0;endFill=0;" edge="1" parent="1">
          <mxGeometry width="50" height="50" relative="1" as="geometry">
            <mxPoint x="440" y="393" as="sourcePoint" />
            <mxPoint x="470" y="393" as="targetPoint" />
          </mxGeometry>
        </mxCell>
        <mxCell id="EwUT0WBinwEKpefRujVR-23" value="&lt;font style=&quot;font-size: 7px;&quot;&gt;(1, 1)&lt;/font&gt;" style="text;html=1;strokeColor=none;fillColor=none;align=center;verticalAlign=middle;whiteSpace=wrap;rounded=0;" vertex="1" parent="1">
          <mxGeometry x="380" y="415" width="57" height="25" as="geometry" />
        </mxCell>
        <mxCell id="EwUT0WBinwEKpefRujVR-24" value="&lt;font style=&quot;font-size: 7px;&quot;&gt;(0, N)&lt;/font&gt;" style="text;html=1;strokeColor=none;fillColor=none;align=center;verticalAlign=middle;whiteSpace=wrap;rounded=0;" vertex="1" parent="1">
          <mxGeometry x="333" y="480" width="57" height="25" as="geometry" />
        </mxCell>
        <mxCell id="EwUT0WBinwEKpefRujVR-25" value="" style="endArrow=oval;html=1;rounded=0;endFill=1;" edge="1" parent="1">
          <mxGeometry width="50" height="50" relative="1" as="geometry">
            <mxPoint x="360" y="377" as="sourcePoint" />
            <mxPoint x="360" y="437" as="targetPoint" />
            <Array as="points">
              <mxPoint x="460" y="377" />
              <mxPoint x="460" y="437" />
            </Array>
          </mxGeometry>
        </mxCell>
        <mxCell id="EwUT0WBinwEKpefRujVR-26" style="edgeStyle=orthogonalEdgeStyle;rounded=0;orthogonalLoop=1;jettySize=auto;html=1;exitX=0.75;exitY=0;exitDx=0;exitDy=0;entryX=0;entryY=0.5;entryDx=0;entryDy=0;endArrow=none;endFill=0;" edge="1" parent="1" source="EwUT0WBinwEKpefRujVR-27" target="EwUT0WBinwEKpefRujVR-28">
          <mxGeometry relative="1" as="geometry">
            <Array as="points">
              <mxPoint x="1862" y="151" />
            </Array>
          </mxGeometry>
        </mxCell>
        <mxCell id="EwUT0WBinwEKpefRujVR-27" value="UTENTE" style="rounded=0;whiteSpace=wrap;html=1;fontSize=8;" vertex="1" parent="1">
          <mxGeometry x="1830" y="135" width="80" height="40" as="geometry" />
        </mxCell>
        <mxCell id="EwUT0WBinwEKpefRujVR-28" value="SEGUE" style="rhombus;whiteSpace=wrap;html=1;fontSize=8;" vertex="1" parent="1">
          <mxGeometry x="2009.5" y="135" width="70" height="50" as="geometry" />
        </mxCell>
        <mxCell id="EwUT0WBinwEKpefRujVR-29" value="&lt;font style=&quot;font-size: 9px;&quot;&gt;(0, N)&lt;/font&gt;" style="text;html=1;strokeColor=none;fillColor=none;align=center;verticalAlign=middle;whiteSpace=wrap;rounded=0;" vertex="1" parent="1">
          <mxGeometry x="2067" y="152" width="60" height="30" as="geometry" />
        </mxCell>
        <mxCell id="EwUT0WBinwEKpefRujVR-30" value="&lt;font style=&quot;font-size: 9px;&quot;&gt;(0, N)&lt;/font&gt;" style="text;html=1;strokeColor=none;fillColor=none;align=center;verticalAlign=middle;whiteSpace=wrap;rounded=0;" vertex="1" parent="1">
          <mxGeometry x="1966.5" y="152" width="60" height="30" as="geometry" />
        </mxCell>
        <mxCell id="EwUT0WBinwEKpefRujVR-31" style="edgeStyle=orthogonalEdgeStyle;rounded=0;orthogonalLoop=1;jettySize=auto;html=1;exitX=0;exitY=0.5;exitDx=0;exitDy=0;entryX=1;entryY=0.5;entryDx=0;entryDy=0;endArrow=none;endFill=0;" edge="1" parent="1" source="EwUT0WBinwEKpefRujVR-32" target="EwUT0WBinwEKpefRujVR-28">
          <mxGeometry relative="1" as="geometry">
            <Array as="points">
              <mxPoint x="2200" y="160" />
            </Array>
          </mxGeometry>
        </mxCell>
        <mxCell id="EwUT0WBinwEKpefRujVR-35" style="edgeStyle=orthogonalEdgeStyle;rounded=0;orthogonalLoop=1;jettySize=auto;html=1;exitX=0.5;exitY=0;exitDx=0;exitDy=0;endArrow=oval;endFill=0;" edge="1" parent="1" source="EwUT0WBinwEKpefRujVR-32" target="EwUT0WBinwEKpefRujVR-36">
          <mxGeometry relative="1" as="geometry">
            <mxPoint x="2240" y="100" as="targetPoint" />
          </mxGeometry>
        </mxCell>
        <mxCell id="EwUT0WBinwEKpefRujVR-32" value="CANALE" style="rounded=0;whiteSpace=wrap;html=1;fontSize=8;" vertex="1" parent="1">
          <mxGeometry x="2200" y="137" width="80" height="40" as="geometry" />
        </mxCell>
        <mxCell id="EwUT0WBinwEKpefRujVR-36" value="Numero Follower" style="text;html=1;strokeColor=none;fillColor=none;align=center;verticalAlign=middle;whiteSpace=wrap;rounded=0;" vertex="1" parent="1">
          <mxGeometry x="2210" y="85" width="60" height="30" as="geometry" />
        </mxCell>
        <mxCell id="jZhTIUbwoDD73gPxls-7-1" value="&lt;font style=&quot;font-size: 9px;&quot;&gt;(0, N)&lt;/font&gt;" style="text;html=1;strokeColor=none;fillColor=none;align=center;verticalAlign=middle;whiteSpace=wrap;rounded=0;" vertex="1" parent="1">
          <mxGeometry x="931" y="266.5" width="60" height="30" as="geometry" />
        </mxCell>
        <mxCell id="jZhTIUbwoDD73gPxls-7-7" style="edgeStyle=orthogonalEdgeStyle;rounded=0;orthogonalLoop=1;jettySize=auto;html=1;exitX=1;exitY=0.5;exitDx=0;exitDy=0;endArrow=none;endFill=0;" edge="1" parent="1" source="jZhTIUbwoDD73gPxls-7-3" target="jZhTIUbwoDD73gPxls-7-6">
          <mxGeometry relative="1" as="geometry" />
        </mxCell>
        <mxCell id="jZhTIUbwoDD73gPxls-7-3" value="INVIA IN LIVE" style="rhombus;whiteSpace=wrap;html=1;fontSize=8;" vertex="1" parent="1">
          <mxGeometry x="210" y="818" width="70" height="50" as="geometry" />
        </mxCell>
        <mxCell id="jZhTIUbwoDD73gPxls-7-10" style="edgeStyle=orthogonalEdgeStyle;rounded=0;orthogonalLoop=1;jettySize=auto;html=1;exitX=1;exitY=0.5;exitDx=0;exitDy=0;endArrow=none;endFill=0;entryX=0;entryY=0.5;entryDx=0;entryDy=0;" edge="1" parent="1" target="jZhTIUbwoDD73gPxls-7-11">
          <mxGeometry relative="1" as="geometry">
            <mxPoint x="893" y="818" as="targetPoint" />
            <mxPoint x="440" y="849" as="sourcePoint" />
            <Array as="points">
              <mxPoint x="480" y="849" />
              <mxPoint x="480" y="864" />
            </Array>
          </mxGeometry>
        </mxCell>
        <mxCell id="jZhTIUbwoDD73gPxls-7-16" style="edgeStyle=orthogonalEdgeStyle;rounded=0;orthogonalLoop=1;jettySize=auto;html=1;exitX=0;exitY=0;exitDx=0;exitDy=0;entryX=0.5;entryY=0.833;entryDx=0;entryDy=0;entryPerimeter=0;endArrow=oval;endFill=0;" edge="1" parent="1" source="jZhTIUbwoDD73gPxls-7-6" target="jZhTIUbwoDD73gPxls-7-13">
          <mxGeometry relative="1" as="geometry" />
        </mxCell>
        <mxCell id="jZhTIUbwoDD73gPxls-7-17" style="edgeStyle=orthogonalEdgeStyle;rounded=0;orthogonalLoop=1;jettySize=auto;html=1;exitX=0.75;exitY=0;exitDx=0;exitDy=0;entryX=0.5;entryY=1;entryDx=0;entryDy=0;endArrow=oval;endFill=0;" edge="1" parent="1" source="jZhTIUbwoDD73gPxls-7-6" target="jZhTIUbwoDD73gPxls-7-14">
          <mxGeometry relative="1" as="geometry" />
        </mxCell>
        <mxCell id="jZhTIUbwoDD73gPxls-7-6" value="LIVE CHAT" style="rounded=0;whiteSpace=wrap;html=1;fontSize=8;" vertex="1" parent="1">
          <mxGeometry x="360" y="823" width="80" height="40" as="geometry" />
        </mxCell>
        <mxCell id="jZhTIUbwoDD73gPxls-7-12" style="edgeStyle=orthogonalEdgeStyle;rounded=0;orthogonalLoop=1;jettySize=auto;html=1;exitX=0.5;exitY=0;exitDx=0;exitDy=0;entryX=0.115;entryY=-0.019;entryDx=0;entryDy=0;endArrow=none;endFill=0;entryPerimeter=0;" edge="1" parent="1" source="jZhTIUbwoDD73gPxls-7-11" target="aqizpYm2CFcPnqaB_0yM-25">
          <mxGeometry relative="1" as="geometry">
            <mxPoint x="894" y="743" as="targetPoint" />
            <Array as="points">
              <mxPoint x="635" y="750" />
              <mxPoint x="829" y="750" />
            </Array>
          </mxGeometry>
        </mxCell>
        <mxCell id="jZhTIUbwoDD73gPxls-7-11" value="&lt;font style=&quot;font-size: 7px;&quot;&gt;PUBBLICA&lt;/font&gt;" style="rhombus;whiteSpace=wrap;html=1;fontSize=8;" vertex="1" parent="1">
          <mxGeometry x="600" y="839" width="70" height="50" as="geometry" />
        </mxCell>
        <mxCell id="jZhTIUbwoDD73gPxls-7-13" value="&lt;span style=&quot;font-size: 8px;&quot;&gt;DATA E ORA&lt;/span&gt;" style="text;html=1;strokeColor=none;fillColor=none;align=center;verticalAlign=middle;whiteSpace=wrap;rounded=0;" vertex="1" parent="1">
          <mxGeometry x="340" y="771" width="60" height="30" as="geometry" />
        </mxCell>
        <mxCell id="jZhTIUbwoDD73gPxls-7-14" value="&lt;span style=&quot;font-size: 8px;&quot;&gt;TESTO&lt;/span&gt;" style="text;html=1;strokeColor=none;fillColor=none;align=center;verticalAlign=middle;whiteSpace=wrap;rounded=0;" vertex="1" parent="1">
          <mxGeometry x="414" y="773" width="40" height="25" as="geometry" />
        </mxCell>
        <mxCell id="jZhTIUbwoDD73gPxls-7-18" value="" style="endArrow=oval;html=1;rounded=0;endFill=1;" edge="1" parent="1">
          <mxGeometry width="50" height="50" relative="1" as="geometry">
            <mxPoint x="340" y="880" as="sourcePoint" />
            <mxPoint x="460" y="870" as="targetPoint" />
            <Array as="points">
              <mxPoint x="340" y="810" />
              <mxPoint x="460" y="810" />
            </Array>
          </mxGeometry>
        </mxCell>
        <mxCell id="jZhTIUbwoDD73gPxls-7-19" value="&lt;font style=&quot;font-size: 9px;&quot;&gt;(0, N)&lt;/font&gt;" style="text;html=1;strokeColor=none;fillColor=none;align=center;verticalAlign=middle;whiteSpace=wrap;rounded=0;" vertex="1" parent="1">
          <mxGeometry x="749" y="725" width="60" height="30" as="geometry" />
        </mxCell>
        <mxCell id="jZhTIUbwoDD73gPxls-7-20" value="&lt;font style=&quot;font-size: 9px;&quot;&gt;(0, N)&lt;/font&gt;" style="text;html=1;strokeColor=none;fillColor=none;align=center;verticalAlign=middle;whiteSpace=wrap;rounded=0;" vertex="1" parent="1">
          <mxGeometry x="151" y="818" width="60" height="30" as="geometry" />
        </mxCell>
        <mxCell id="jZhTIUbwoDD73gPxls-7-21" value="&lt;font style=&quot;font-size: 9px;&quot;&gt;(1, 1)&lt;/font&gt;" style="text;html=1;strokeColor=none;fillColor=none;align=center;verticalAlign=middle;whiteSpace=wrap;rounded=0;" vertex="1" parent="1">
          <mxGeometry x="263" y="818" width="60" height="30" as="geometry" />
        </mxCell>
        <mxCell id="aqizpYm2CFcPnqaB_0yM-1" style="edgeStyle=orthogonalEdgeStyle;rounded=0;orthogonalLoop=1;jettySize=auto;html=1;exitX=1;exitY=0;exitDx=0;exitDy=0;endArrow=oval;endFill=1;" edge="1" parent="1" source="aqizpYm2CFcPnqaB_0yM-5">
          <mxGeometry relative="1" as="geometry">
            <mxPoint x="939" y="621" as="targetPoint" />
            <Array as="points">
              <mxPoint x="909" y="621" />
              <mxPoint x="909" y="621" />
            </Array>
          </mxGeometry>
        </mxCell>
        <mxCell id="aqizpYm2CFcPnqaB_0yM-2" style="edgeStyle=orthogonalEdgeStyle;rounded=0;orthogonalLoop=1;jettySize=auto;html=1;exitX=1;exitY=0.5;exitDx=0;exitDy=0;endArrow=oval;endFill=0;" edge="1" parent="1" source="aqizpYm2CFcPnqaB_0yM-5">
          <mxGeometry relative="1" as="geometry">
            <mxPoint x="939" y="641" as="targetPoint" />
          </mxGeometry>
        </mxCell>
        <mxCell id="aqizpYm2CFcPnqaB_0yM-3" style="edgeStyle=orthogonalEdgeStyle;rounded=0;orthogonalLoop=1;jettySize=auto;html=1;exitX=1;exitY=0.75;exitDx=0;exitDy=0;endArrow=oval;endFill=0;" edge="1" parent="1" source="aqizpYm2CFcPnqaB_0yM-5">
          <mxGeometry relative="1" as="geometry">
            <mxPoint x="1019" y="651" as="targetPoint" />
          </mxGeometry>
        </mxCell>
        <mxCell id="aqizpYm2CFcPnqaB_0yM-4" style="edgeStyle=orthogonalEdgeStyle;rounded=0;orthogonalLoop=1;jettySize=auto;html=1;exitX=1;exitY=0.25;exitDx=0;exitDy=0;endArrow=oval;endFill=0;entryX=0;entryY=0.5;entryDx=0;entryDy=0;" edge="1" parent="1" source="aqizpYm2CFcPnqaB_0yM-5" target="aqizpYm2CFcPnqaB_0yM-14">
          <mxGeometry relative="1" as="geometry">
            <mxPoint x="1019" y="630.6666666666667" as="targetPoint" />
          </mxGeometry>
        </mxCell>
        <mxCell id="aqizpYm2CFcPnqaB_0yM-5" value="CONTENUTO MULTIMEDIALE" style="rounded=0;whiteSpace=wrap;html=1;fontSize=8;" vertex="1" parent="1">
          <mxGeometry x="809" y="621" width="80" height="40" as="geometry" />
        </mxCell>
        <mxCell id="aqizpYm2CFcPnqaB_0yM-6" style="edgeStyle=orthogonalEdgeStyle;rounded=0;orthogonalLoop=1;jettySize=auto;html=1;exitX=0;exitY=0.5;exitDx=0;exitDy=0;endArrow=oval;endFill=0;" edge="1" parent="1">
          <mxGeometry relative="1" as="geometry">
            <mxPoint x="769" y="661" as="targetPoint" />
            <mxPoint x="809" y="661" as="sourcePoint" />
            <Array as="points">
              <mxPoint x="790" y="661" />
              <mxPoint x="790" y="661" />
            </Array>
          </mxGeometry>
        </mxCell>
        <mxCell id="aqizpYm2CFcPnqaB_0yM-7" value="&lt;font style=&quot;font-size: 8px;&quot;&gt;NUMERO VISUALIZZAZIONI&lt;br&gt;&lt;/font&gt;" style="text;html=1;strokeColor=none;fillColor=none;align=center;verticalAlign=middle;whiteSpace=wrap;rounded=0;" vertex="1" parent="1">
          <mxGeometry x="706" y="648" width="60" height="30" as="geometry" />
        </mxCell>
        <mxCell id="aqizpYm2CFcPnqaB_0yM-8" value="&lt;font style=&quot;font-size: 8px;&quot;&gt;TITOLO&lt;/font&gt;" style="text;html=1;strokeColor=none;fillColor=none;align=center;verticalAlign=middle;whiteSpace=wrap;rounded=0;" vertex="1" parent="1">
          <mxGeometry x="929" y="625" width="60" height="30" as="geometry" />
        </mxCell>
        <mxCell id="aqizpYm2CFcPnqaB_0yM-9" style="edgeStyle=orthogonalEdgeStyle;rounded=0;orthogonalLoop=1;jettySize=auto;html=1;exitX=1;exitY=0;exitDx=0;exitDy=0;endArrow=oval;endFill=0;" edge="1" parent="1">
          <mxGeometry relative="1" as="geometry">
            <mxPoint x="939" y="641.4347826086957" as="targetPoint" />
            <mxPoint x="889" y="641" as="sourcePoint" />
            <Array as="points">
              <mxPoint x="909" y="641" />
              <mxPoint x="909" y="641" />
            </Array>
          </mxGeometry>
        </mxCell>
        <mxCell id="aqizpYm2CFcPnqaB_0yM-10" style="edgeStyle=orthogonalEdgeStyle;rounded=0;orthogonalLoop=1;jettySize=auto;html=1;exitX=1;exitY=0.5;exitDx=0;exitDy=0;endArrow=oval;endFill=0;" edge="1" parent="1">
          <mxGeometry relative="1" as="geometry">
            <mxPoint x="939" y="661" as="targetPoint" />
            <mxPoint x="889" y="661" as="sourcePoint" />
          </mxGeometry>
        </mxCell>
        <mxCell id="aqizpYm2CFcPnqaB_0yM-11" value="&lt;font style=&quot;font-size: 8px;&quot;&gt;DURATA&lt;/font&gt;" style="text;html=1;strokeColor=none;fillColor=none;align=center;verticalAlign=middle;whiteSpace=wrap;rounded=0;" vertex="1" parent="1">
          <mxGeometry x="931" y="645" width="60" height="30" as="geometry" />
        </mxCell>
        <mxCell id="aqizpYm2CFcPnqaB_0yM-12" value="&lt;font style=&quot;font-size: 7px;&quot;&gt;(0, 1)&lt;/font&gt;" style="text;html=1;strokeColor=none;fillColor=none;align=center;verticalAlign=middle;whiteSpace=wrap;rounded=0;" vertex="1" parent="1">
          <mxGeometry x="991" y="644" width="20" as="geometry" />
        </mxCell>
        <mxCell id="aqizpYm2CFcPnqaB_0yM-13" value="&lt;font style=&quot;font-size: 8px;&quot;&gt;&amp;nbsp;VISUALIZZAZIONI MEDIE&lt;/font&gt;" style="text;html=1;strokeColor=none;fillColor=none;align=center;verticalAlign=middle;whiteSpace=wrap;rounded=0;" vertex="1" parent="1">
          <mxGeometry x="1011" y="641" width="92" height="30" as="geometry" />
        </mxCell>
        <mxCell id="aqizpYm2CFcPnqaB_0yM-14" value="&lt;font style=&quot;font-size: 8px;&quot;&gt;CATEGORIA&lt;/font&gt;" style="text;html=1;strokeColor=none;fillColor=none;align=center;verticalAlign=middle;whiteSpace=wrap;rounded=0;" vertex="1" parent="1">
          <mxGeometry x="975" y="616" width="60" height="30" as="geometry" />
        </mxCell>
        <mxCell id="aqizpYm2CFcPnqaB_0yM-15" style="edgeStyle=orthogonalEdgeStyle;rounded=0;orthogonalLoop=1;jettySize=auto;html=1;exitX=0;exitY=0.5;exitDx=0;exitDy=0;endArrow=oval;endFill=0;" edge="1" parent="1">
          <mxGeometry relative="1" as="geometry">
            <mxPoint x="769" y="621" as="targetPoint" />
            <mxPoint x="809" y="621" as="sourcePoint" />
            <Array as="points">
              <mxPoint x="790" y="621" />
              <mxPoint x="790" y="621" />
            </Array>
          </mxGeometry>
        </mxCell>
        <mxCell id="aqizpYm2CFcPnqaB_0yM-16" value="&lt;font style=&quot;font-size: 8px;&quot;&gt;TIPO&lt;br&gt;&lt;/font&gt;" style="text;html=1;strokeColor=none;fillColor=none;align=center;verticalAlign=middle;whiteSpace=wrap;rounded=0;" vertex="1" parent="1">
          <mxGeometry x="720" y="607" width="60" height="30" as="geometry" />
        </mxCell>
        <mxCell id="aqizpYm2CFcPnqaB_0yM-17" value="&lt;font style=&quot;font-size: 8px;&quot;&gt;URL&lt;br&gt;&lt;/font&gt;" style="text;html=1;strokeColor=none;fillColor=none;align=center;verticalAlign=middle;whiteSpace=wrap;rounded=0;" vertex="1" parent="1">
          <mxGeometry x="926" y="605" width="60" height="30" as="geometry" />
        </mxCell>
        <mxCell id="aqizpYm2CFcPnqaB_0yM-18" value="&lt;span style=&quot;font-size: 7px;&quot;&gt;(0, 1)&lt;/span&gt;" style="text;html=1;strokeColor=none;fillColor=none;align=center;verticalAlign=middle;whiteSpace=wrap;rounded=0;" vertex="1" parent="1">
          <mxGeometry x="779" y="652" width="27" height="2" as="geometry" />
        </mxCell>
        <mxCell id="aqizpYm2CFcPnqaB_0yM-19" style="edgeStyle=orthogonalEdgeStyle;rounded=0;orthogonalLoop=1;jettySize=auto;html=1;exitX=0.5;exitY=0;exitDx=0;exitDy=0;endArrow=none;endFill=0;entryX=0.5;entryY=1;entryDx=0;entryDy=0;" edge="1" parent="1" source="aqizpYm2CFcPnqaB_0yM-20">
          <mxGeometry relative="1" as="geometry">
            <mxPoint x="849" y="661" as="targetPoint" />
          </mxGeometry>
        </mxCell>
        <mxCell id="aqizpYm2CFcPnqaB_0yM-20" value="ASSOCIATO" style="rhombus;whiteSpace=wrap;html=1;fontSize=8;" vertex="1" parent="1">
          <mxGeometry x="860" y="705" width="70" height="50" as="geometry" />
        </mxCell>
        <mxCell id="aqizpYm2CFcPnqaB_0yM-21" style="edgeStyle=orthogonalEdgeStyle;rounded=0;orthogonalLoop=1;jettySize=auto;html=1;exitX=0;exitY=0;exitDx=0;exitDy=0;endArrow=oval;endFill=0;" edge="1" parent="1" source="aqizpYm2CFcPnqaB_0yM-23">
          <mxGeometry relative="1" as="geometry">
            <mxPoint x="853.25" y="797" as="targetPoint" />
          </mxGeometry>
        </mxCell>
        <mxCell id="aqizpYm2CFcPnqaB_0yM-22" style="edgeStyle=orthogonalEdgeStyle;rounded=0;orthogonalLoop=1;jettySize=auto;html=1;exitX=0.75;exitY=0;exitDx=0;exitDy=0;entryX=0.5;entryY=1;entryDx=0;entryDy=0;endArrow=none;endFill=0;" edge="1" parent="1" target="aqizpYm2CFcPnqaB_0yM-20">
          <mxGeometry relative="1" as="geometry">
            <Array as="points">
              <mxPoint x="894" y="848" />
              <mxPoint x="894" y="771" />
              <mxPoint x="895" y="771" />
            </Array>
            <mxPoint x="898" y="848" as="sourcePoint" />
            <mxPoint x="895" y="765" as="targetPoint" />
          </mxGeometry>
        </mxCell>
        <mxCell id="aqizpYm2CFcPnqaB_0yM-23" value="TAG" style="rounded=0;whiteSpace=wrap;html=1;fontSize=8;" vertex="1" parent="1">
          <mxGeometry x="854" y="822" width="80" height="40" as="geometry" />
        </mxCell>
        <mxCell id="aqizpYm2CFcPnqaB_0yM-24" value="&lt;font style=&quot;font-size: 9px;&quot;&gt;(1, 1)&lt;/font&gt;" style="text;html=1;strokeColor=none;fillColor=none;align=center;verticalAlign=middle;whiteSpace=wrap;rounded=0;" vertex="1" parent="1">
          <mxGeometry x="901" y="773" width="60" height="30" as="geometry" />
        </mxCell>
        <mxCell id="aqizpYm2CFcPnqaB_0yM-25" value="&lt;font style=&quot;font-size: 9px;&quot;&gt;(0, N)&lt;/font&gt;" style="text;html=1;strokeColor=none;fillColor=none;align=center;verticalAlign=middle;whiteSpace=wrap;rounded=0;" vertex="1" parent="1">
          <mxGeometry x="829" y="660" width="78" height="26" as="geometry" />
        </mxCell>
        <mxCell id="aqizpYm2CFcPnqaB_0yM-26" value="&lt;font style=&quot;font-size: 8px;&quot;&gt;NOME_TAG&lt;/font&gt;" style="text;html=1;strokeColor=none;fillColor=none;align=center;verticalAlign=middle;whiteSpace=wrap;rounded=0;" vertex="1" parent="1">
          <mxGeometry x="819" y="772" width="60" height="30" as="geometry" />
        </mxCell>
        <mxCell id="aqizpYm2CFcPnqaB_0yM-27" value="" style="endArrow=none;html=1;rounded=0;" edge="1" parent="1">
          <mxGeometry width="50" height="50" relative="1" as="geometry">
            <mxPoint x="823" y="813" as="sourcePoint" />
            <mxPoint x="823" y="812" as="targetPoint" />
          </mxGeometry>
        </mxCell>
        <mxCell id="aqizpYm2CFcPnqaB_0yM-28" value="" style="endArrow=oval;html=1;rounded=0;endFill=1;" edge="1" parent="1">
          <mxGeometry width="50" height="50" relative="1" as="geometry">
            <mxPoint x="823" y="812" as="sourcePoint" />
            <mxPoint x="943" y="812" as="targetPoint" />
          </mxGeometry>
        </mxCell>
        <mxCell id="aqizpYm2CFcPnqaB_0yM-29" value="&lt;p style=&quot;line-height: 80%;&quot;&gt;&lt;span style=&quot;font-size: 7px;&quot;&gt;NUMERO FOLLOWER&lt;/span&gt;&lt;/p&gt;" style="text;html=1;strokeColor=none;fillColor=none;align=center;verticalAlign=middle;whiteSpace=wrap;rounded=0;" vertex="1" parent="1">
          <mxGeometry x="695" y="355" width="78" height="30" as="geometry" />
        </mxCell>
        <mxCell id="aqizpYm2CFcPnqaB_0yM-30" style="edgeStyle=orthogonalEdgeStyle;rounded=0;orthogonalLoop=1;jettySize=auto;html=1;endArrow=oval;endFill=0;" edge="1" parent="1">
          <mxGeometry relative="1" as="geometry">
            <Array as="points">
              <mxPoint x="682" y="371" />
            </Array>
            <mxPoint x="633" y="371" as="sourcePoint" />
            <mxPoint x="692" y="371" as="targetPoint" />
          </mxGeometry>
        </mxCell>
        <mxCell id="aqizpYm2CFcPnqaB_0yM-34" style="edgeStyle=orthogonalEdgeStyle;rounded=0;orthogonalLoop=1;jettySize=auto;html=1;exitX=0.5;exitY=1;exitDx=0;exitDy=0;entryX=0.5;entryY=0;entryDx=0;entryDy=0;endArrow=none;endFill=0;" edge="1" parent="1" source="aqizpYm2CFcPnqaB_0yM-32" target="vEjCoTIgJUpQcKAmu4vh-24">
          <mxGeometry relative="1" as="geometry" />
        </mxCell>
        <mxCell id="aqizpYm2CFcPnqaB_0yM-32" value="ESSERE" style="rhombus;whiteSpace=wrap;html=1;fontSize=8;" vertex="1" parent="1">
          <mxGeometry x="253" y="395" width="50" height="40" as="geometry" />
        </mxCell>
        <mxCell id="aqizpYm2CFcPnqaB_0yM-35" value="&lt;span style=&quot;color: rgb(0, 0, 0); font-family: Helvetica; font-size: 7px; font-style: normal; font-variant-ligatures: normal; font-variant-caps: normal; font-weight: 400; letter-spacing: normal; orphans: 2; text-align: center; text-indent: 0px; text-transform: none; widows: 2; word-spacing: 0px; -webkit-text-stroke-width: 0px; background-color: rgb(251, 251, 251); text-decoration-thickness: initial; text-decoration-style: initial; text-decoration-color: initial; float: none; display: inline !important;&quot;&gt;(0, 1)&lt;/span&gt;" style="text;whiteSpace=wrap;html=1;" vertex="1" parent="1">
          <mxGeometry x="259" y="335.5" width="27" height="20" as="geometry" />
        </mxCell>
        <mxCell id="aqizpYm2CFcPnqaB_0yM-36" value="&lt;font style=&quot;font-size: 9px;&quot;&gt;(1, 1)&lt;/font&gt;" style="text;html=1;strokeColor=none;fillColor=none;align=center;verticalAlign=middle;whiteSpace=wrap;rounded=0;" vertex="1" parent="1">
          <mxGeometry x="263" y="440" width="60" height="30" as="geometry" />
        </mxCell>
        <mxCell id="KJJLjmd7ufImtbG5PTc1-2" value="&lt;p style=&quot;line-height: 100%; font-size: 7px;&quot;&gt;TIPO&lt;/p&gt;" style="text;html=1;strokeColor=none;fillColor=none;align=center;verticalAlign=middle;whiteSpace=wrap;rounded=0;fontSize=7;spacing=0;" vertex="1" parent="1">
          <mxGeometry x="80" y="341" width="42" height="20" as="geometry" />
        </mxCell>
        <mxCell id="aqizpYm2CFcPnqaB_0yM-37" style="edgeStyle=orthogonalEdgeStyle;rounded=0;orthogonalLoop=1;jettySize=auto;html=1;endArrow=none;endFill=0;startArrow=oval;startFill=1;" edge="1" parent="1">
          <mxGeometry relative="1" as="geometry">
            <mxPoint x="323" y="480.37" as="targetPoint" />
            <Array as="points">
              <mxPoint x="293" y="480.37" />
              <mxPoint x="293" y="480.37" />
            </Array>
            <mxPoint x="283" y="480" as="sourcePoint" />
          </mxGeometry>
        </mxCell>
        <mxCell id="aqizpYm2CFcPnqaB_0yM-38" style="edgeStyle=orthogonalEdgeStyle;rounded=0;orthogonalLoop=1;jettySize=auto;html=1;exitX=0;exitY=0.5;exitDx=0;exitDy=0;endArrow=oval;endFill=1;" edge="1" parent="1">
          <mxGeometry relative="1" as="geometry">
            <mxPoint x="784" y="230" as="targetPoint" />
            <mxPoint x="824" y="230.9999999999999" as="sourcePoint" />
            <Array as="points">
              <mxPoint x="784" y="231" />
            </Array>
          </mxGeometry>
        </mxCell>
        <mxCell id="aqizpYm2CFcPnqaB_0yM-39" value="SOCIAL" style="rounded=0;whiteSpace=wrap;html=1;fontSize=8;" vertex="1" parent="1">
          <mxGeometry x="813" y="211" width="80" height="40" as="geometry" />
        </mxCell>
        <mxCell id="aqizpYm2CFcPnqaB_0yM-40" value="&lt;font style=&quot;font-size: 8px;&quot;&gt;URLPROFILO&lt;/font&gt;" style="text;html=1;strokeColor=none;fillColor=none;align=center;verticalAlign=middle;whiteSpace=wrap;rounded=0;" vertex="1" parent="1">
          <mxGeometry x="721" y="215" width="60" height="30" as="geometry" />
        </mxCell>
        <mxCell id="aqizpYm2CFcPnqaB_0yM-42" style="edgeStyle=orthogonalEdgeStyle;rounded=0;orthogonalLoop=1;jettySize=auto;html=1;exitX=0.5;exitY=0;exitDx=0;exitDy=0;entryX=0.5;entryY=1;entryDx=0;entryDy=0;endArrow=none;endFill=0;" edge="1" parent="1" source="aqizpYm2CFcPnqaB_0yM-41" target="aqizpYm2CFcPnqaB_0yM-39">
          <mxGeometry relative="1" as="geometry" />
        </mxCell>
        <mxCell id="aqizpYm2CFcPnqaB_0yM-41" value="COLLEGATO" style="rhombus;whiteSpace=wrap;html=1;fontSize=8;" vertex="1" parent="1">
          <mxGeometry x="824" y="280" width="59" height="46" as="geometry" />
        </mxCell>
        <mxCell id="aqizpYm2CFcPnqaB_0yM-43" value="&lt;font style=&quot;font-size: 9px;&quot;&gt;(1, 1)&lt;/font&gt;" style="text;html=1;strokeColor=none;fillColor=none;align=center;verticalAlign=middle;whiteSpace=wrap;rounded=0;" vertex="1" parent="1">
          <mxGeometry x="838" y="249" width="60" height="30" as="geometry" />
        </mxCell>
        <mxCell id="aqizpYm2CFcPnqaB_0yM-44" value="&lt;font style=&quot;font-size: 9px;&quot;&gt;(0, N)&lt;/font&gt;" style="text;html=1;strokeColor=none;fillColor=none;align=center;verticalAlign=middle;whiteSpace=wrap;rounded=0;" vertex="1" parent="1">
          <mxGeometry x="798" y="328" width="60" height="30" as="geometry" />
        </mxCell>
        <mxCell id="aqizpYm2CFcPnqaB_0yM-45" value="&lt;font style=&quot;font-size: 9px;&quot;&gt;(1, 1)&lt;/font&gt;" style="text;html=1;strokeColor=none;fillColor=none;align=center;verticalAlign=middle;whiteSpace=wrap;rounded=0;" vertex="1" parent="1">
          <mxGeometry x="475" y="837" width="60" height="30" as="geometry" />
        </mxCell>
        <mxCell id="KJJLjmd7ufImtbG5PTc1-4" style="edgeStyle=orthogonalEdgeStyle;rounded=0;orthogonalLoop=1;jettySize=auto;html=1;endArrow=none;endFill=0;startArrow=oval;startFill=1;entryX=0.084;entryY=0.958;entryDx=0;entryDy=0;entryPerimeter=0;" edge="1" parent="1">
          <mxGeometry relative="1" as="geometry">
            <mxPoint x="553.02" y="384.99999999999994" as="targetPoint" />
            <Array as="points">
              <mxPoint x="553.3" y="409.68" />
            </Array>
            <mxPoint x="553.3" y="431.68" as="sourcePoint" />
          </mxGeometry>
        </mxCell>
        <mxCell id="KJJLjmd7ufImtbG5PTc1-5" value="&lt;p style=&quot;line-height: 80%;&quot;&gt;&lt;span style=&quot;font-size: 7px;&quot;&gt;NOME_CANALE&lt;/span&gt;&lt;/p&gt;" style="text;html=1;strokeColor=none;fillColor=none;align=center;verticalAlign=middle;whiteSpace=wrap;rounded=0;" vertex="1" parent="1">
          <mxGeometry x="526" y="425" width="60" height="30" as="geometry" />
        </mxCell>
        <mxCell id="Vqkp_mZz2Hcob1dN0WSf-1" style="edgeStyle=orthogonalEdgeStyle;rounded=0;orthogonalLoop=1;jettySize=auto;html=1;exitX=0;exitY=0.5;exitDx=0;exitDy=0;entryX=1;entryY=0.5;entryDx=0;entryDy=0;endArrow=oval;endFill=0;" edge="1" parent="1">
          <mxGeometry relative="1" as="geometry">
            <mxPoint x="271" y="493.5" as="sourcePoint" />
            <mxPoint x="229" y="493.5" as="targetPoint" />
            <Array as="points">
              <mxPoint x="250" y="494" />
              <mxPoint x="250" y="494" />
            </Array>
          </mxGeometry>
        </mxCell>
        <mxCell id="Vqkp_mZz2Hcob1dN0WSf-2" value="&lt;span style=&quot;font-size: 8px;&quot;&gt;NUMERO LIVE&lt;/span&gt;" style="text;html=1;strokeColor=none;fillColor=none;align=center;verticalAlign=middle;whiteSpace=wrap;rounded=0;" vertex="1" parent="1">
          <mxGeometry x="167" y="477.5" width="60" height="30" as="geometry" />
        </mxCell>
        <mxCell id="Vqkp_mZz2Hcob1dN0WSf-4" value="&lt;font style=&quot;font-size: 8px;&quot;&gt;MINUTI TRASMESSI&lt;/font&gt;" style="text;html=1;strokeColor=none;fillColor=none;align=center;verticalAlign=middle;whiteSpace=wrap;rounded=0;" vertex="1" parent="1">
          <mxGeometry x="149" y="497" width="80" height="30" as="geometry" />
        </mxCell>
        <mxCell id="Vqkp_mZz2Hcob1dN0WSf-5" style="edgeStyle=orthogonalEdgeStyle;rounded=0;orthogonalLoop=1;jettySize=auto;html=1;exitX=0;exitY=0.5;exitDx=0;exitDy=0;entryX=1;entryY=0.5;entryDx=0;entryDy=0;endArrow=oval;endFill=0;" edge="1" parent="1" target="Vqkp_mZz2Hcob1dN0WSf-6">
          <mxGeometry relative="1" as="geometry">
            <mxPoint x="270" y="534" as="sourcePoint" />
            <mxPoint x="228" y="534" as="targetPoint" />
            <Array as="points">
              <mxPoint x="270" y="532" />
            </Array>
          </mxGeometry>
        </mxCell>
        <mxCell id="Vqkp_mZz2Hcob1dN0WSf-6" value="&lt;p style=&quot;line-height: 70%;&quot;&gt;&lt;font style=&quot;font-size: 8px;&quot;&gt;SPETTATORI SIMULTANEI&lt;/font&gt;&lt;/p&gt;" style="text;html=1;strokeColor=none;fillColor=none;align=center;verticalAlign=middle;whiteSpace=wrap;rounded=0;" vertex="1" parent="1">
          <mxGeometry x="166.25" y="517" width="60" height="30" as="geometry" />
        </mxCell>
        <mxCell id="Vqkp_mZz2Hcob1dN0WSf-7" style="edgeStyle=orthogonalEdgeStyle;rounded=0;orthogonalLoop=1;jettySize=auto;html=1;exitX=0;exitY=0.5;exitDx=0;exitDy=0;endArrow=oval;endFill=0;" edge="1" parent="1" source="vEjCoTIgJUpQcKAmu4vh-24">
          <mxGeometry relative="1" as="geometry">
            <mxPoint x="267" y="519" as="sourcePoint" />
            <mxPoint x="230" y="513" as="targetPoint" />
            <Array as="points">
              <mxPoint x="230" y="513" />
              <mxPoint x="230" y="513" />
            </Array>
          </mxGeometry>
        </mxCell>
      </root>
    </mxGraphModel>
  </diagram>
</mxfile>
